<?xml version="1.0" encoding="UTF-8" standalone="no"?>
<!-- Created with Inkscape (http://www.inkscape.org/) -->

<svg
   width="600px"
   height="1024px"
   viewBox="0 0 600 1024"
   version="1.1"
   id="SVGRoot"
   sodipodi:docname="eiffel_tower.svg"
   inkscape:version="1.2 (dc2aedaf03, 2022-05-15)"
   xmlns:inkscape="http://www.inkscape.org/namespaces/inkscape"
   xmlns:sodipodi="http://sodipodi.sourceforge.net/DTD/sodipodi-0.dtd"
   xmlns="http://www.w3.org/2000/svg"
   xmlns:svg="http://www.w3.org/2000/svg">
  <sodipodi:namedview
     id="namedview101"
     pagecolor="#ffffff"
     bordercolor="#666666"
     borderopacity="1.0"
     inkscape:showpageshadow="2"
     inkscape:pageopacity="0.0"
     inkscape:pagecheckerboard="0"
     inkscape:deskcolor="#d1d1d1"
     inkscape:document-units="px"
     showgrid="false"
     inkscape:zoom="0.5"
     inkscape:cx="289"
     inkscape:cy="438"
     inkscape:window-width="1920"
     inkscape:window-height="1017"
     inkscape:window-x="-8"
     inkscape:window-y="-8"
     inkscape:window-maximized="1"
     inkscape:current-layer="layer2"
     showguides="true">
    <sodipodi:guide
       position="299.07036,625.68656"
       orientation="1,0"
       id="guide111"
       inkscape:locked="false" />
    <sodipodi:guide
       position="276.48082,512.02641"
       orientation="0,-1"
       id="guide113"
       inkscape:locked="false" />
    <sodipodi:guide
       position="185.01207,256.01867"
       orientation="0,-1"
       id="guide115"
       inkscape:locked="false" />
    <sodipodi:guide
       position="180.21336,767.9713"
       orientation="0,-1"
       id="guide117"
       inkscape:locked="false" />
    <sodipodi:guide
       position="247.43664,127.98866"
       orientation="0,-1"
       id="guide119"
       inkscape:locked="false" />
    <sodipodi:guide
       position="150,295.96484"
       orientation="1,0"
       id="guide121"
       inkscape:locked="false" />
    <sodipodi:guide
       position="450,272.38281"
       orientation="1,0"
       id="guide123"
       inkscape:locked="false" />
    <sodipodi:guide
       position="75,180.37891"
       orientation="1,0"
       id="guide125"
       inkscape:locked="false" />
    <sodipodi:guide
       position="525.02678,505.07201"
       orientation="1,0"
       id="guide127"
       inkscape:locked="false" />
    <sodipodi:guide
       position="217.30275,896.01367"
       orientation="0,-1"
       id="guide129"
       inkscape:locked="false" />
    <sodipodi:guide
       position="112.5,258.05469"
       orientation="1,0"
       id="guide329"
       inkscape:locked="false" />
    <sodipodi:guide
       position="487.5,255.92188"
       orientation="1,0"
       id="guide331"
       inkscape:locked="false" />
    <sodipodi:guide
       position="361.15479,296.38712"
       orientation="0,-1"
       id="guide359"
       inkscape:locked="false" />
    <sodipodi:guide
       position="381.83766,333.86378"
       orientation="0,-1"
       id="guide5284"
       inkscape:locked="false" />
    <sodipodi:guide
       position="453.96255,473.87093"
       orientation="0,-1"
       id="guide5286"
       inkscape:locked="false" />
  </sodipodi:namedview>
  <defs
     id="defs96">
    <clipPath
       clipPathUnits="userSpaceOnUse"
       id="clipPath6002">
      <path
         id="path6004"
         style="fill:#ff0000;fill-opacity:1;fill-rule:nonzero;stroke:none"
         d="m 190.11133,509.8457 v 43 H 406.0625 v -43 z m 184.88281,3.65235 c 0.0557,1.8e-4 0.1122,0.003 0.16797,0.004 0.034,0.003 0.0676,0.008 0.10156,0.0117 0.0185,0.002 0.038,0.005 0.0566,0.006 0.0625,0.004 0.0808,-0.002 0.14649,0 0.0683,0.002 0.11644,0.008 0.18164,0.0137 0.0116,10e-4 0.0217,0.002 0.0332,0.002 0.0264,0 0.0558,-0.003 0.082,-0.004 0.0555,-10e-4 0.076,5e-5 0.13281,0 0.0624,0.002 0.12345,0.0126 0.18555,0.0176 0.0174,0.001 0.0354,-2e-4 0.0527,0.002 0.0593,0.005 0.11628,0.0151 0.17578,0.0156 0.0138,-2.3e-4 0.0273,-5.5e-4 0.041,0 0.0683,0.005 0.14635,0.009 0.21485,0.0117 0.0396,0.002 0.0795,0.002 0.11914,0.004 0.0841,0.004 0.16785,0.009 0.25195,0.0137 0.19648,0.003 0.39331,-0.002 0.58984,-0.002 0.15789,9.7e-4 0.31477,1.3e-4 0.47266,0 0.0991,-0.001 0.0615,0.006 0.11719,-0.006 0.13281,-0.0164 -0.0229,0.002 0.14258,-0.0137 0.11177,-0.0103 -0.0335,-0.002 0.13867,-0.0117 0.0773,-0.004 0.10048,-0.005 0.17578,-0.004 0.0206,0.001 0.0418,0.005 0.0625,0.004 0.004,0 -0.0157,-0.005 -0.0117,-0.006 0.0173,-0.004 0.035,-0.004 0.0527,-0.006 0.066,-0.007 0.13107,-0.009 0.19727,-0.006 0.0455,0.004 0.0911,0.002 0.13672,0.002 0.16014,-0.002 0.28642,0.032 0.38086,0.084 0.0354,-0.002 0.07,-0.005 0.10547,-0.006 0.11803,-0.003 0.1773,0.002 0.29297,0.008 0.14057,0.007 0.12238,0.006 0.26171,0.008 0.0414,-1.6e-4 0.0817,4.1e-4 0.12305,0 0.0845,-9.5e-4 0.14432,-0.006 0.22852,0.006 0.0352,0.005 0.10151,-0.0121 0.10351,0.0234 0.0389,0.72577 0.16308,0.72386 -0.082,0.76563 0.002,0.1152 -0.01,0.20605 -0.0312,0.27734 0.003,0.0347 0.004,0.0767 0.006,0.11523 0.28923,0.0153 0.57863,0.0274 0.86719,0.0547 1.63388,0.15492 2.21354,1.16671 1.88086,1.94727 1.26579,0.14565 2.62745,0.44997 2.86718,1.17969 0.22916,0.0187 0.45122,0.067 0.66016,0.16992 0.009,0.004 0.0149,0.009 0.0234,0.0137 0.47137,-0.15086 0.90408,-0.19877 1.22461,0.0703 0.19389,0.16283 -0.29454,0.14705 -0.66016,0.23242 1.52283,0.85258 2.29623,1.74857 1.58789,2.28711 0.56735,0.0436 1.14796,0.0827 1.77539,0.10742 5.34235,0.21028 1.35236,0.28199 -3.82031,0.31836 0.0194,0.11362 0.0317,0.22803 0.0488,0.3418 0.57474,-0.007 1.31916,-0.414 1.75781,-0.10937 0.33725,-0.0942 0.68932,-0.207 0.74414,0.0547 0.0657,0.31333 0.0928,0.65071 0.084,0.98829 0.0182,0.002 0.0365,0.003 0.0547,0.006 0.11019,0.0169 0.0518,0.0434 -0.0547,0.0742 -0.005,0.11868 -0.0174,0.23603 -0.0332,0.35352 0.0297,0.005 0.0762,0.009 0.10352,0.0137 0.2333,0.0387 0.58706,0.0336 0.84375,0.0957 -0.14325,-0.30192 -0.29293,-0.6014 -0.42188,-0.9082 0.42735,0.66958 0.30748,0.50445 0.4375,0.91406 0.13486,0.0352 0.22241,0.0998 0.25196,0.20118 0.0222,-0.20493 -0.0514,-0.65605 -0.0234,-1.52149 -0.008,-0.0702 -0.013,-0.13805 -0.0215,-0.21289 0.0205,-0.005 0.0208,0.0689 0.0234,0.0508 0.009,-0.0617 0.0126,-0.2497 0.01,-0.1875 -0.009,0.13182 -0.008,0.23268 -0.0117,0.34961 0.0429,0.379 0.0805,0.70961 0.11328,1.15039 0.002,0.0244 -0.004,-0.0557 -0.0254,-0.0684 -0.0146,-0.009 -0.006,0.0338 -0.004,0.0508 0.0364,0.24958 0.1171,0.49587 0.1211,0.74805 3e-4,0.0197 -5e-5,0.0276 -0.002,0.0312 -1.9e-4,4.8e-4 2.3e-4,0.004 0,0.004 0.0373,0.19356 0.0666,0.38726 0.0918,0.58203 0.0677,0.21675 0.13748,0.45984 0.0899,0.34961 -0.0338,-0.0774 -0.0339,-0.0873 -0.0645,-0.15821 10e-4,0.013 0.003,0.026 0.004,0.0391 0.14035,0.583 0.26625,1.05163 0.33789,1.67187 0.10784,0.0752 0.22244,0.14045 0.32226,0.22656 0.10865,-0.0135 0.21753,-0.0255 0.32618,-0.0391 0.01,-0.0207 0.0168,-0.0442 0.0273,-0.0645 0.0144,-0.0276 0.0519,0.0339 0.0781,0.0508 -0.0352,0.004 -0.0703,0.009 -0.10546,0.0137 -0.0377,0.0782 -0.0744,0.15796 -0.10547,0.24219 0.61927,0.6243 1.06271,1.46776 1.40625,2.26953 0.15424,0.35997 -0.58699,0.35195 -1.44141,0.27539 0.0828,0.21714 0.17516,0.43216 0.21094,0.66016 0.0361,0.22977 0.0484,0.46158 0.0684,0.69336 0.20739,0.51073 0.43788,1.01042 0.64453,1.52148 0.0768,0.16288 0.36713,0.7675 0.60547,1.30469 0.20262,0.15438 0.22884,0.58643 0.33594,0.85156 0.56975,1.4098 0.43573,1.50184 0.56054,3.14063 -0.1483,1.25407 -0.098,1.26135 -0.48242,2.53906 -0.0906,0.30098 -0.34428,1.19679 -0.33008,0.88281 0.023,-0.50769 0.37322,-0.97445 0.35742,-1.48242 -0.0516,-1.65978 -0.0931,-2.12143 -0.34961,-2.69727 -0.0223,0.23775 -0.11313,0.51867 -0.36523,0.89649 0.37679,0.91872 -0.11618,1.10625 -0.77734,1.09961 -0.19283,0.64905 -0.53625,1.2257 -0.96875,1.76172 0.72868,1.17726 0.45917,1.23502 -0.5,1.69531 -0.0273,0.005 -0.0548,0.009 -0.082,0.0137 0.16424,0.36944 0.29366,0.68897 0.38671,0.96289 0.17684,-0.0235 0.32456,-0.0228 0.31055,0.11133 -0.0285,0.27302 -0.057,0.47834 -0.0859,0.70312 0.19481,-0.0141 0.35716,0.012 0.39649,0.17383 0.3873,1.59285 0.40652,2.33915 0.11719,2.67969 0.36716,0.54382 0.49718,0.91413 0.48437,1.18359 0.0524,0.006 0.0266,0.002 0.11133,0.0117 0.11722,0.0162 0.23422,0.0326 0.35156,0.0488 0.004,3.5e-4 0.008,-3.6e-4 0.0117,0 0.27237,0.0249 0.54368,0.0519 0.81641,0.0723 0.0332,0.007 0.0567,0.0116 0.0859,0.0176 0.027,-0.006 0.0499,-0.008 0.0488,0.01 0.29571,0.0593 0.36581,0.08 0.27344,0.33984 0.20529,-0.23528 0.38354,-0.36297 0.40234,0.0742 0.003,0.0723 0.02,0.1452 0.01,0.2168 -0.0359,0.24252 -0.11166,0.26318 -0.28125,0.44336 -0.0711,0.0316 -0.14078,0.0701 -0.21484,0.0937 -0.11494,0.0371 -0.29604,0.0458 -0.41211,0.0488 -0.22354,0.006 -0.44646,-0.01 -0.66993,-0.0117 -0.14187,-0.003 -0.20323,-0.005 -0.3457,0.002 -0.29645,0.015 -0.59108,0.062 -0.88867,0.0508 -0.41444,10e-4 -0.82775,-0.002 -1.24219,-0.002 -0.45857,0.004 -0.91877,0.0171 -1.37695,-0.0117 -0.0824,-0.003 -0.1637,-0.009 -0.2461,-0.01 -0.0863,-0.002 -0.17346,9.2e-4 -0.25976,0.002 -0.3315,0.004 -0.66288,0.0104 -0.99414,-0.008 -0.6033,-0.0261 0.099,0.002 -0.53321,-0.0176 -0.13238,-0.004 -0.26595,-0.0156 -0.39843,-0.0176 -0.14847,-0.002 -0.29686,0.009 -0.44531,0.002 -0.35926,-0.008 -0.16413,-0.002 -0.5293,-0.0156 -0.10228,-0.003 -0.20446,-0.004 -0.30664,-0.01 -0.27414,-0.0157 -0.5485,-0.0499 -0.82227,-0.0703 -0.4018,-0.0306 -0.80241,-0.0526 -1.20508,-0.0684 -0.0799,-0.003 -0.16023,-0.006 -0.24023,-0.008 -0.0697,-0.002 -0.13942,-0.002 -0.20898,-0.006 -0.0597,-0.003 -0.12019,-0.0106 -0.17969,-0.0156 -0.034,-0.005 -0.0675,-0.0116 -0.10157,-0.0176 -0.0235,-0.004 -0.0486,-0.002 -0.0703,-0.0117 -0.002,-7.8e-4 0.004,-0.002 0.006,-0.002 -0.0959,-0.002 -0.19028,0.01 -0.28515,-0.0215 0.0385,-0.31989 0.0604,-0.64297 0.11132,-0.96094 -0.058,-0.004 -0.11576,-0.008 -0.17382,-0.0117 v -0.002 c -1.02318,-0.0674 -1.08698,-1.03661 -0.19141,-1.10352 0.0597,-0.004 0.12317,-0.004 0.19141,0 0.045,0.003 0.0898,0.007 0.13476,0.01 -0.0121,-0.0481 -0.0344,-0.0612 -0.0449,-0.11719 -0.0921,-0.0453 -0.1805,-0.097 -0.26563,-0.1543 l -0.002,-0.002 h -0.002 c -0.18381,0.0412 -0.36829,0.0662 -0.55274,0.0293 -0.15975,-0.0319 0.0184,-0.0806 0.25391,-0.15625 -1.20694,-0.52979 -2.09798,-1.17374 -1.87695,-1.81055 -0.0662,-0.0478 -0.12571,-0.11838 -0.1875,-0.17969 -1.52867,0.07 -3.05877,0.10174 -4.58985,-0.004 -4.02165,-0.60266 -7.65457,-0.42386 -9.21289,-6.31836 -0.17463,-0.66059 -0.12569,-1.32849 0.0391,-1.99219 -0.11106,-0.41445 -0.21837,-0.83125 -0.31641,-1.25195 -0.64743,-0.0153 -1.29501,-0.03 -1.94141,0.0176 -0.0378,-0.0136 -0.0733,-0.037 -0.11328,-0.041 -0.0848,-0.008 -0.2326,0.0886 -0.2539,0.008 -0.0104,-0.0401 0.0541,-0.0831 0.11718,-0.11523 -0.37584,0.15208 -0.73244,0.34877 -1.11328,0.48828 -1.26134,0.46206 -1.5245,0.4581 -2.80078,0.69531 -0.52334,0.0519 -1.04529,0.12565 -1.57031,0.15625 -2.56806,0.14951 -5.14522,-0.17259 -7.59375,-0.95898 -11.78155,-3.78389 -7.85258,-15.56711 3.95312,-11.85938 1.25052,0.39275 2.49899,0.45728 3.78906,0.24414 0.089,-0.0263 0.18948,-0.0299 0.26758,-0.0801 0.0508,-0.0328 -0.27233,0.004 -0.17773,-0.0293 0.16103,-0.0558 0.32151,-0.11144 0.48242,-0.16797 0.94551,-1.86775 3.24772,-2.68124 4.9375,-3.46875 1.00992,-0.29984 2.00852,-0.63992 3.0293,-0.90039 0.13553,-0.0346 0.27246,-0.0639 0.4082,-0.0977 0.13933,-0.34383 0.38824,-0.75336 0.79102,-1.25586 0.23878,-0.29789 0.65601,-0.32873 1.07226,-0.34375 0.26598,-0.177 0.49839,-0.38343 0.75781,-0.57226 0.5178,-0.37687 1.08026,-0.69505 1.69727,-0.87696 -0.0156,-0.008 -0.0296,-0.0165 -0.043,-0.0293 -0.0186,-0.0178 -0.0295,-0.0299 -0.0469,-0.0469 -0.012,-3e-5 -0.0172,1.1e-4 -0.0352,0 0.011,-8.3e-4 0.0222,-8.5e-4 0.0332,-0.002 -0.0483,-0.0472 -0.0897,-0.092 -0.1289,-0.13281 -0.12453,0.0328 -0.26078,0.089 -0.32813,0 -0.004,-0.005 -0.006,-0.009 -0.01,-0.0137 -0.11506,0.0172 -0.17972,-0.0114 -0.13868,-0.19532 -0.36012,-0.5382 -0.1166,-0.54143 0.19532,-0.61328 0.36497,-0.0611 0.50038,-0.0872 0.89258,-0.14062 0.26855,-0.0366 0.62792,-0.0782 0.94726,-0.11524 -0.002,-0.10524 0.0125,-0.21027 0.0312,-0.3164 v -0.002 c -0.19771,-0.23504 -0.0326,-0.59907 0.49805,-0.58789 0.15095,0.003 0.3022,-0.004 0.45312,0 0.0583,0.001 0.11553,0.005 0.17383,0.008 0.15538,0.007 0.22781,0.009 0.38672,0.0195 0.0117,8.1e-4 0.0235,8.5e-4 0.0352,0.002 0.002,-2.6e-4 0.004,2.6e-4 0.006,0 0.0103,-0.002 0.021,-0.004 0.0313,-0.006 -0.002,-3.1e-4 -0.008,-8.5e-4 -0.006,-0.002 0.031,-0.007 0.0625,-0.0116 0.0937,-0.0176 0.17017,-0.0167 0.34129,0.007 0.51171,0 0.0191,-10e-4 0.0378,-0.004 0.0566,-0.006 0.0553,-0.0107 0.11027,-0.0139 0.16602,-0.0137 z m -3.86719,2.13281 0.002,0.002 c 0.0373,9e-5 0.0558,6.7e-4 0.0508,-0.006 -0.0175,0.001 -0.0352,0.003 -0.0527,0.004 z m 19.79297,8.77148 c -0.007,-0.0641 -0.0171,-0.12743 -0.0254,-0.1914 -0.0459,-0.14721 -0.0967,-0.31239 -0.0801,-0.23242 0.0336,0.16116 0.0612,0.26119 0.0937,0.39843 0.005,0.0114 0.007,0.0138 0.0117,0.0254 z M 221.26367,513.50391 h 0.23242 c 0.0226,0 0.0439,-8.7e-4 0.0664,0 0.0854,0.003 0.11272,0.009 0.19922,0.0195 0.0181,0.002 0.19449,0.0253 0.21289,0.0273 0.0325,0.003 0.0651,0.002 0.0977,0.004 0.096,0.004 0.19101,0.009 0.28711,0.008 0.0297,-0.001 0.16284,-0.004 0.18554,-0.004 0.0461,10e-4 0.0926,0.004 0.13867,0.006 0.17273,0.006 0.3448,0.0145 0.51758,0.0195 0.31832,0.005 0.63542,-0.004 0.95313,-0.0234 0.12253,-0.008 0.24645,-0.006 0.36914,-0.004 0.11867,0.002 0.16106,-1.9e-4 0.2832,0.008 0.0491,0.003 0.0974,0.01 0.14648,0.0137 0.18281,0.0184 0.36564,0.0346 0.54883,0.0488 0.046,0.003 0.0926,0.008 0.13867,0.01 0.0473,0.002 0.0952,0.003 0.14258,0.004 0.16264,-9.8e-4 0.32568,-8.5e-4 0.48828,-0.006 0.37154,-0.0101 -0.0595,-0.003 0.32618,-0.0117 0.0551,-10e-4 0.10896,-10e-4 0.16406,-0.002 0.11503,-10e-4 0.23069,0.002 0.3457,0.004 0.0123,1.8e-4 0.0429,-0.003 0.0508,-0.002 l -0.002,0.002 c -0.0375,0.0138 -0.078,0.0174 -0.11719,0.0254 -0.47879,0.10033 0.52347,0.30542 0.36133,0.44531 0.0136,0.004 0.0275,0.006 0.041,0.01 0.0437,0.0416 0.11356,0.0672 0.13086,0.125 0.0283,0.0936 0.0369,0.20497 -0.006,0.29297 -0.0733,0.15254 -0.24792,0.14376 -0.37891,0.13476 -0.0301,0.002 -0.0598,0.004 -0.0898,0.008 -0.11555,0.0172 -0.16162,0.0355 -0.28125,0.0664 -0.0567,0.0147 -0.11316,0.0306 -0.16993,0.0449 0.006,0.0526 0.0133,0.10546 0.0176,0.15821 5e-4,0.006 -0.0145,7.5e-4 -0.0215,0.002 -0.007,4.6e-4 -0.0142,7.5e-4 -0.0215,0.002 v 0.002 c -0.004,-3e-4 -0.009,1.9e-4 -0.0137,0 -0.004,3.4e-4 -0.008,-2.5e-4 -0.0117,0 -0.0873,0.006 -0.17442,0.009 -0.26172,0.0156 -0.0388,0.002 -0.0783,0.005 -0.11718,0.006 -0.003,8e-5 -0.005,-7e-5 -0.008,0 0.0243,0.0258 0.0485,0.0505 0.0742,0.0742 -0.0173,0.0297 -0.0323,0.0616 -0.0469,0.0937 0.19727,0.0222 0.3942,0.0466 0.58984,0.0801 0.0494,0.008 0.17918,0.0146 0.14258,0.0488 -0.0156,0.0145 -0.041,0.0258 -0.0703,0.0352 0.0419,0.0134 0.0758,0.0257 0.0488,0.0234 -0.0171,-10e-4 -0.0339,-0.006 -0.0508,-0.01 0.0151,0.0129 0.0291,0.0274 0.041,0.0449 0.0487,0.0719 0.0379,0.16849 -0.004,0.25976 0.009,6.8e-4 0.0182,7.5e-4 0.0273,0.002 0.28652,0.0213 0.57502,0.0154 0.85937,0.0566 0.0225,0.003 0.057,0.0116 0.0918,0.0234 0.0385,0.003 0.0769,0.007 0.11523,0.0117 0.0333,0.004 0.002,0.0102 -0.0449,0.0156 0.0479,0.0213 0.0772,0.043 0.041,0.0469 -0.24286,0.026 -0.48704,-0.021 -0.73047,-0.041 -0.12746,-0.0105 -0.2692,-0.0254 -0.40039,-0.0371 -0.0124,0.0187 -0.0268,0.0358 -0.041,0.0527 0.0107,0.0414 0.0204,0.0848 0.0273,0.13281 0.002,0.0161 -0.002,0.0289 -0.01,0.0391 0.18505,0.009 0.50441,-0.009 0.55274,0.0586 l 0.002,0.002 c 0.009,0.0153 0.005,0.0359 -0.0176,0.0606 -0.14886,0.16021 -0.42258,0.0315 -0.65039,0.006 0.009,0.0232 0.016,0.0464 0.0234,0.0703 0.013,10e-4 0.026,0.003 0.0391,0.004 0.40217,0.0535 0.80747,0.0794 1.20508,0.16015 0.0469,0.01 0.13574,0.042 0.19922,0.0723 0.0635,0.0303 0.10216,0.0594 0.0547,0.0644 -0.37496,0.0385 -0.75306,-0.0181 -1.1289,-0.0469 -0.10097,-0.008 -0.20181,-0.0171 -0.30274,-0.0254 0.002,0.006 0.004,0.0131 0.006,0.0195 -0.069,0.0446 -0.13423,0.0968 -0.20703,0.13476 -0.0172,0.009 -0.039,0.005 -0.0586,0.006 0.005,0.0282 0.009,0.0574 0.0117,0.0859 0.002,0.0245 -0.0466,0.0203 -0.0703,0.0273 -0.0115,0.004 -0.0236,0.005 -0.0352,0.008 0.0506,0.006 0.10079,0.0119 0.15039,0.0176 0.12961,-0.003 0.25944,-0.005 0.38476,0 0.0922,0.003 0.18689,-0.007 0.27539,0.0195 0.0413,0.0121 0.0671,0.0241 0.0879,0.0351 0.004,5.4e-4 0.009,-0.002 0.0137,0 0.007,0.003 0.005,0.005 0.002,0.008 0.0147,0.01 0.0214,0.0187 0.0234,0.0273 4.83573,0.55608 10.60931,1.23 14.33984,1.76172 1.49674,0.21334 3.42547,-0.32662 4.46875,0.76758 1.22705,1.28682 0.81158,3.46393 1.2168,5.19531 -0.72791,0.1395 -1.45374,0.2941 -2.17969,0.44531 -0.005,0.009 -0.008,0.0183 -0.0137,0.0273 -0.31815,0.51633 -0.87865,0.48651 -1.51953,0.2793 -0.78017,0.15334 -1.5625,0.2965 -2.34961,0.4082 -1.85233,0.26286 -3.7279,0.34271 -5.58985,0.52539 -0.31713,0.13732 -0.74032,0.3198 -1.00781,0.4336 0.31862,0.87244 0.5502,1.79338 0.77344,2.66211 0.12795,0.49791 -0.81743,0.37244 -1.98828,0.10937 -0.0267,0.0406 -0.0494,0.0833 -0.0781,0.12305 -0.14609,0.20169 -0.33272,0.33001 -0.54687,0.4082 -0.27324,1.0254 -1.021,1.90897 -2.1211,2.66407 -0.0699,0.36869 -0.17702,0.72469 -0.35546,1.05859 -0.21542,0.40304 -0.55545,0.7134 -0.94727,0.9707 0.54316,0.19472 0.92027,0.3531 1.62695,0.58985 2.58274,0.86523 2.1225,0.74215 4.00586,1.00195 0.99681,0.1375 0.85104,1.15213 -0.14453,1.00586 -0.43227,-0.0635 -0.87304,-0.0833 -1.29687,-0.18945 -0.98197,-0.24586 -1.95234,-0.5415 -2.91211,-0.86329 -0.71187,-0.23867 -1.09189,-0.39771 -1.63867,-0.59375 -0.0609,0.33716 -0.15497,0.66879 -0.2754,0.9961 0.58654,1.27476 1.15459,2.55172 0.94532,3.88086 -0.1451,0.9216 -1.85252,0.24758 -2.78516,0.27148 -0.42238,0.0108 -0.84508,0.007 -1.26758,0.0117 0.0354,0.0731 0.0671,0.1494 0.0918,0.23047 1.42542,4.68671 -1.8526,5.28694 -4.79688,5.24805 0.28961,2.33557 -0.25784,1.32973 -1.06836,0.46093 -0.5194,0.19893 -1.06156,0.35141 -1.57031,0.56836 -0.15426,0.0658 -0.46653,0.24376 -0.60156,0.31836 -0.43085,0.26936 -0.88412,0.47314 -1.34766,0.64258 0.0134,0.006 0.0248,0.0126 0.0312,0.0215 0.0251,0.0347 0.0374,0.075 0.0566,0.11328 -0.007,0.0266 -0.0115,0.0539 -0.0195,0.0801 -0.008,0.0263 -0.0555,0.0721 -0.0644,0.0801 -0.037,0.0337 -0.0875,0.0648 -0.13477,0.0859 0.006,0.002 0.012,0.009 0.0176,0.0117 l 0.002,0.002 c 0.0148,0.005 0.0303,0.006 0.0449,0.0117 0.0311,0.0708 0.0918,0.13365 0.0937,0.21094 6.3e-4,0.0224 -0.0212,0.036 -0.0449,0.0469 0.0179,0.06 -0.015,0.14139 -0.12305,0.19922 h -0.002 c -0.0158,0.004 -0.0313,0.009 -0.0469,0.0137 -0.008,0.002 -0.0174,0.01 -0.0254,0.0117 -0.0172,0.004 -0.054,0.01 -0.0664,0.0117 -0.0157,9.9e-4 -0.0312,8.1e-4 -0.0469,0.002 -0.013,4e-4 -0.026,3e-5 -0.0391,0 -0.0575,0 -0.11438,7.7e-4 -0.17188,0.002 -0.0437,-10e-6 -0.0494,10e-4 -0.0918,-0.002 -0.0269,-0.001 -0.0551,-0.005 -0.082,-0.006 -0.025,-7.2e-4 -0.0841,-2.5e-4 -0.10742,0 -0.046,0.002 -0.0927,0.005 -0.13867,0.006 -0.0224,3.7e-4 -0.044,-6.8e-4 -0.0664,0 -0.0318,10e-4 -0.0638,0.004 -0.0957,0.006 -0.0264,0.12153 -0.16101,0.23154 -0.4043,0.23243 -0.0829,7e-5 -0.16514,10e-4 -0.24804,0 -0.18507,10e-4 -0.36976,0.0104 -0.55469,-0.002 -0.24707,-0.016 -0.49466,-0.0243 -0.74219,-0.0293 -0.034,-0.002 -0.0677,-0.004 -0.10156,-0.006 -0.0201,-0.002 -0.0402,-0.005 -0.0606,-0.006 -0.12895,-0.008 -0.25761,-0.009 -0.38672,-0.01 -0.0674,-10e-4 -0.13572,-0.003 -0.20312,-0.004 -0.0625,-0.003 -0.22436,-0.0106 -0.28906,-0.0156 -0.1173,-0.009 -0.23397,-0.0243 -0.35157,-0.0293 -0.0964,10e-4 -0.0639,-8e-5 -0.16015,0.002 -0.0953,0.002 -0.19076,0.006 -0.28516,-0.01 0.004,-0.012 0.002,-0.004 -0.0293,-0.004 -0.0143,-1.4e-4 -0.0287,-7e-5 -0.043,0 -0.0685,0 -0.13657,0.002 -0.20507,0.004 -0.12641,7e-4 -0.24942,-0.004 -0.375,-0.0195 -0.0276,-0.004 -0.0565,-0.01 -0.084,-0.0137 -0.0245,-0.004 -0.0477,-0.007 -0.0723,-0.01 -0.24208,-0.0328 -0.3652,-0.1604 -0.37891,-0.28515 -0.0116,2.4e-4 -0.0265,-2.4e-4 -0.0371,0 -0.0416,0.001 -0.0834,0.002 -0.125,0.004 -0.029,10e-4 -0.0751,0.0295 -0.0879,0.004 -0.04,-0.0816 -0.0283,-0.17983 -0.043,-0.26953 0.0616,-0.0213 0.0275,-0.0101 0.10742,-0.0332 0.0926,-0.0268 0.18545,-0.0545 0.27735,-0.084 0.0241,-0.007 0.0484,-0.0135 0.0723,-0.0215 0.001,-3.6e-4 0.009,-8e-4 0.01,-0.002 -8e-5,-0.0131 -3.8e-4,-0.0259 0,-0.0391 -0.0151,2.8e-4 -0.0301,2.4e-4 -0.0449,0 -0.001,-0.0156 -0.008,-0.0313 -0.01,-0.0469 -0.009,10e-4 -0.007,5e-4 -0.0176,0.002 -0.029,0.003 -0.17995,0.0224 -0.20703,0.0254 -0.0265,0.002 -0.065,0.0254 -0.0801,0.004 -0.0532,-0.0771 -0.0668,-0.17401 -0.0996,-0.26171 0.0145,-0.005 0.0281,-0.0136 0.043,-0.0176 0.0444,-0.0121 0.1048,-0.0198 0.1543,-0.0274 0.007,-0.07 0.0852,-0.1302 0.22266,-0.10742 0.0121,0.002 0.0249,0.005 0.0371,0.006 0.0132,0.002 0.0278,0.003 0.041,0.004 0.0165,10e-4 0.0255,8e-4 0.0391,0.002 0,-0.005 -1.1e-4,-0.0104 0,-0.0156 -0.0535,-0.004 -0.1104,-0.007 -0.19531,-0.0117 -0.0402,-0.002 -0.16624,-0.006 -0.21094,-0.0156 -0.0449,-0.0102 -0.11751,0.002 -0.13281,-0.041 -0.0289,-0.0818 0.0183,-0.17337 0.0273,-0.25977 0.0208,-0.005 0.0414,-0.0105 0.0625,-0.0156 -0.097,-0.0177 -0.19466,-0.032 -0.29101,-0.0527 -1.89453,-0.40853 -0.34618,-0.15078 -1.51367,-0.33398 -1.83165,-0.54253 -3.2025,-0.69775 -2.32813,-4.56641 0.19884,-0.87978 0.95626,-1.2177 1.82617,-1.33008 -0.26185,-0.20343 -0.55091,-0.39312 -0.66796,-0.69336 -0.10277,-0.26363 -0.18607,-0.53247 -0.26172,-0.80468 -0.47705,-0.055 -0.95151,-0.11102 -1.40235,-0.17383 -1.70241,-0.23716 -3.37262,-0.66927 -5.05859,-1.00391 -1.22969,-1.73258 -3.38384,-3.0948 -3.68945,-5.19726 -0.17916,-1.23257 1.43442,-2.16324 2.53515,-2.7461 0.62114,-0.3289 1.37603,-0.60512 2.21094,-0.83789 -0.9896,-3.46088 1.97572,-6.95571 5.27734,-8.80664 0.60754,-0.34059 1.25556,-0.59196 1.91407,-0.82031 -3.27207,-1.39384 -2.2103,-5.32176 2.25781,-5.26172 0.1678,0.002 0.34024,0.0115 0.51758,0.0254 0.98256,0.0768 1.96695,0.12692 2.94726,0.22852 1.77619,0.18411 3.55011,0.39343 5.32422,0.59961 10e-4,-0.0183 0.004,-0.0364 0.006,-0.0547 -0.24026,-0.0506 -0.48128,-0.0976 -0.7207,-0.15235 -0.082,3.4e-4 -0.16411,-10e-5 -0.2461,-0.002 -0.0286,-5.4e-4 0.0515,-0.0295 0.0801,-0.0293 0.0111,8e-5 0.0222,-9e-5 0.0332,0 -0.0418,-0.01 -0.0832,-0.0196 -0.125,-0.0293 -0.002,-5.7e-4 -0.009,5.8e-4 -0.0117,0 -0.13243,-0.0307 -0.26415,-0.0609 -0.39649,-0.0918 -0.18109,-0.0423 -0.36259,-0.0837 -0.54297,-0.12891 -0.0937,-0.0234 -0.19529,-0.0304 -0.27929,-0.0781 -0.0197,-0.0112 0.007,-0.0412 0.0156,-0.0644 -0.008,-0.0143 -5.7e-4,-0.0161 0.0254,-0.006 0.0767,0.007 0.15375,0.0143 0.23047,0.0215 -0.003,-0.0159 0.004,-0.0321 0.0234,-0.0547 0.1796,-0.20518 0.54578,0.0135 0.81836,0.0215 0.12433,0.004 0.2487,0.008 0.37304,0.0117 -0.0393,-0.004 -0.066,-0.009 -0.1289,-0.0156 0.0789,-0.009 0.15754,-0.0204 0.23633,-0.0312 -0.0769,-0.0102 -0.15341,-0.0206 -0.23047,-0.0293 0.14162,0.016 0.2063,0.0212 0.26367,0.0254 0.001,4e-5 0.003,-9e-5 0.004,0 0.0573,-0.008 0.11458,-0.0123 0.17187,-0.0176 -0.12505,-0.0959 -0.24813,-0.1962 -0.37891,-0.2793 0.015,-0.004 0.0189,-0.006 0.0312,-0.01 -0.16951,-0.009 -0.33989,-0.0126 -0.50585,-0.0449 -0.028,-0.005 -0.003,-0.0817 0.0254,-0.082 0.20823,-0.003 0.41558,0.0271 0.62304,0.0508 0.005,-0.0303 0.0111,-0.0623 0.0234,-0.0996 0.0363,-0.10947 0.20299,-0.0987 0.31836,-0.13476 v -0.002 c -7.5e-4,-0.011 0.009,-0.01 0.0215,-0.006 0.001,-5.3e-4 0.005,-8e-4 0.006,-0.002 0.0297,-10e-4 0.0601,0.001 0.0899,-0.002 0.0306,-0.004 0.0597,-0.0135 0.0898,-0.0195 0.0439,-0.009 0.37562,-0.08 0.38672,-0.082 0.17275,-0.03 0.27885,-0.0431 0.39258,-0.0527 10e-4,-0.0473 0.009,-0.0893 0.0254,-0.125 -0.054,-0.37975 -0.12398,-0.4727 0.0781,-0.4707 0.002,-0.003 0.006,-0.005 0.01,-0.004 h 0.002 c 0.004,7.4e-4 0.01,0.004 0.0137,0.004 0.004,1.8e-4 0.007,-2.4e-4 0.0117,0 0.0642,-8.7e-4 0.12744,-7.2e-4 0.19141,0.006 -0.0123,-0.14389 0.12294,-0.29492 0.4082,-0.29492 z m 6.14258,3.19921 c -0.004,-0.003 -0.0101,-0.005 -0.0156,-0.008 -0.0253,-0.003 -0.0513,0.0133 -0.0781,0.0215 0.01,10e-4 0.0193,0.003 0.0293,0.004 0.0283,-0.005 0.0575,-0.0113 0.0644,-0.0176 z m -0.50781,-1.4082 c -0.0142,-0.004 -0.0252,-0.007 -0.0391,-0.0117 0.008,0.005 0.0159,0.0101 0.0234,0.0156 0.005,-10e-4 0.011,-0.002 0.0156,-0.004 z m -0.68946,-0.10547 c -0.002,0.004 -0.004,0.009 -0.006,0.0137 0.0404,0.005 0.0809,0.008 0.1211,0.0137 0.0508,0.007 0.10694,0.009 0.16406,0.01 -0.0932,-0.0119 -0.18587,-0.0268 -0.2793,-0.0371 z m -8.11523,0.0234 c -0.0633,0.003 -0.12691,0.0134 -0.1875,0.0332 0.21597,0.0204 0.43131,0.043 0.64648,0.0703 0.006,5.1e-4 0.0177,7e-4 0.0234,0.002 0.20699,0.0285 0.41408,0.056 0.6211,0.084 0.0513,-0.034 0.0998,-0.0734 0.14843,-0.11328 -0.21095,-0.007 -0.42192,-0.0133 -0.63281,-0.0195 -0.20434,-0.006 -0.41692,-0.0653 -0.61914,-0.0566 z m 1.10352,0.18945 c 0.23757,0.0321 0.4752,0.0638 0.71289,0.0957 0.0498,-0.004 0.11144,-0.006 0.15625,-0.004 0.1226,0.005 0.18969,0.0132 0.26367,0.0254 7.3e-4,-0.003 0.003,-0.006 0.004,-0.01 -0.13562,-0.008 -0.26915,-0.0244 -0.40039,-0.0606 -0.096,-0.0264 -0.18601,-0.069 -0.27148,-0.11914 -0.30712,-0.003 -0.23199,-0.0349 -0.46484,0.0723 z m -1.31836,-0.14648 c -0.0501,0.0218 -0.0156,0.0343 0.0605,0.041 -0.0306,-0.0102 -0.0511,-0.0246 -0.0605,-0.041 z m 0.0176,0.0527 c 0.17967,0.045 0.36066,0.0869 0.54102,0.12891 0.17363,0.0405 0.34769,0.0791 0.52148,0.11914 0.232,0.001 0.4634,0.006 0.69532,0.0137 -0.14247,-0.0303 -0.28459,-0.0591 -0.42774,-0.0859 -0.44228,-0.0831 -0.88428,-0.1263 -1.33008,-0.17579 z m 1.05664,0.31055 c 0.0444,0.0102 0.0884,0.0213 0.13282,0.0312 0.0748,-3e-4 0.14976,-0.003 0.22461,-0.004 -0.0803,-0.008 -0.16016,-0.0162 -0.24024,-0.0254 -0.0391,-4.7e-4 -0.0781,-0.002 -0.11719,-0.002 z m 0.30469,0.006 c 0.0318,0.007 0.0638,0.0143 0.0957,0.0215 h 0.002 c 0.13797,-0.002 0.27609,-0.006 0.41406,-0.008 -0.17046,-0.006 -0.34118,-0.0105 -0.51172,-0.0137 z m 0.13477,0.0293 c 0.13946,0.0311 0.28037,0.054 0.41992,0.084 10e-4,-0.0143 0.002,-0.0287 0.004,-0.043 -0.1411,-0.0144 -0.28269,-0.028 -0.42383,-0.041 z m 7.32812,0.3125 c 6.9e-4,10e-4 8e-4,0.003 0.002,0.004 0.0182,-4e-5 0.0365,-2.4e-4 0.0547,0 -0.0189,-8.5e-4 -0.0377,-0.003 -0.0566,-0.004 z m 0.0781,0.21093 c 0.009,0.0331 0.0202,0.0666 0.0293,0.0996 0.10876,0.009 0.21741,0.019 0.32618,0.0274 0.34939,0.0267 0.69865,0.033 1.04882,0.0449 -0.0672,-0.002 -0.15184,-0.007 -0.19531,-0.0117 -0.40002,-0.0467 -0.79801,-0.1053 -1.19726,-0.1582 -0.004,-4.1e-4 -0.008,-0.002 -0.0117,-0.002 z m 155.625,1.35938 c -0.0165,0.008 -0.026,0.02 -0.043,0.0273 0.17834,0.0432 0.31544,0.1215 0.42969,0.22266 0.0202,0.005 0.0301,0.0104 0.0508,0.0156 0.28782,0.0729 -0.0257,-0.0752 -0.4375,-0.26562 z m -14.07031,3.08008 c -0.0877,0.0841 -0.18351,0.18263 -0.29297,0.29883 0.14495,-0.0206 0.28806,-0.0394 0.43359,-0.0606 -0.0473,-0.0794 -0.0938,-0.15888 -0.14062,-0.23828 z m 22.25976,3.02148 c -6.9e-4,0.006 -0.003,0.0101 -0.004,0.0156 0.0461,0.11058 0.0857,0.20554 0.13085,0.31445 -0.0376,-0.11144 -0.0841,-0.22015 -0.12695,-0.33008 z m -179.08398,1.74219 c -1.26322,0.41188 -2.40434,0.78814 -3.35547,1.56445 0.90988,-0.34666 1.88514,-0.68421 2.89258,-1.01367 0.14186,-0.19168 0.29681,-0.37577 0.46289,-0.55078 z m 180.54492,5.3125 c 0.0357,0.48525 0.0657,0.97157 0.13281,1.45312 0.0491,0.35281 0.005,-0.88922 -0.0273,-1.06836 -0.0182,-0.0501 -0.0515,-0.17715 -0.10547,-0.38476 z m 0.87695,4.95117 c -0.0107,0.0374 -0.01,0.0734 -0.0234,0.11133 0.0493,0.0204 0.0796,0.0553 0.12305,0.0801 -0.0371,-0.0693 -0.0577,-0.11286 -0.0996,-0.19141 z m -190.84179,0.16211 c -0.38795,0.13858 -0.77685,0.28232 -1.16797,0.44922 -0.25738,0.10982 0.66585,0.37251 0.82812,0.14453 0.13321,-0.18716 0.24215,-0.3873 0.33985,-0.59375 z m 173.7539,5.50781 c -0.17421,0.0734 -0.34806,0.14776 -0.51758,0.23243 -0.09,0.0449 0.18969,0.26558 0.24219,0.17968 0.0847,-0.13863 0.18087,-0.27499 0.27539,-0.41211 z m -159.49609,7.07422 c 0.004,0.005 0.0236,0.008 0.0176,0.006 -0.003,-10e-4 -0.0117,-0.004 -0.0176,-0.006 z" />
    </clipPath>
    <clipPath
       clipPathUnits="userSpaceOnUse"
       id="clipPath6060">
      <path
         id="path6062"
         style="fill:#ff0000;fill-opacity:1;fill-rule:nonzero;stroke:none"
         d="M 75.130859,126.29492 V 895.46094 H 289.08398 V 126.29492 Z M 221.26367,513.50391 h 0.23242 c 0.0226,0 0.0439,-8.7e-4 0.0664,0 0.0854,0.003 0.11272,0.009 0.19922,0.0195 0.0181,0.002 0.19449,0.0253 0.21289,0.0273 0.0325,0.003 0.0651,0.002 0.0977,0.004 0.096,0.004 0.19101,0.009 0.28711,0.008 0.0297,-0.001 0.16284,-0.004 0.18554,-0.004 0.0461,10e-4 0.0926,0.004 0.13867,0.006 0.17273,0.006 0.3448,0.0145 0.51758,0.0195 0.31832,0.005 0.63542,-0.004 0.95313,-0.0234 0.12253,-0.008 0.24645,-0.006 0.36914,-0.004 0.11867,0.002 0.16106,-5.7e-4 0.2832,0.008 0.0491,0.003 0.0974,0.01 0.14648,0.0137 0.18281,0.0184 0.36564,0.0346 0.54883,0.0488 0.046,0.003 0.0926,0.008 0.13867,0.01 0.0473,0.002 0.0952,0.003 0.14258,0.004 0.16264,-9.6e-4 0.32568,-5.5e-4 0.48828,-0.006 0.37154,-0.0101 -0.0595,-0.003 0.32618,-0.0117 0.0551,-10e-4 0.10896,-9.2e-4 0.16406,-0.002 0.11503,-10e-4 0.23069,0.002 0.3457,0.004 0.0123,1.8e-4 0.0429,-0.003 0.0508,-0.002 l -0.002,0.002 c -0.0375,0.0138 -0.078,0.0174 -0.11719,0.0254 -0.47879,0.10033 0.52347,0.30542 0.36133,0.44531 0.0136,0.004 0.0275,0.006 0.041,0.01 0.0437,0.0416 0.11356,0.0672 0.13086,0.125 0.0283,0.0936 0.0369,0.20497 -0.006,0.29297 -0.0733,0.15254 -0.24792,0.14376 -0.37891,0.13476 -0.0301,0.002 -0.0598,0.008 -0.0898,0.0117 -0.11555,0.0172 -0.16162,0.0355 -0.28125,0.0664 -0.0567,0.0147 -0.11316,0.0306 -0.16993,0.0449 0.006,0.0526 0.0133,0.10545 0.0176,0.1582 5e-4,0.006 -0.0145,7.6e-4 -0.0215,0.002 -0.007,4.6e-4 -0.0142,7.6e-4 -0.0215,0.002 v 0.002 c -0.004,-3e-4 -0.009,1.9e-4 -0.0137,0 -0.004,3.4e-4 -0.008,-2.5e-4 -0.0117,0 -0.0873,0.006 -0.17442,0.009 -0.26172,0.0156 -0.0388,0.002 -0.0783,0.005 -0.11718,0.006 -0.003,8e-5 -0.005,-7e-5 -0.008,0 0.0243,0.0258 0.0485,0.0505 0.0742,0.0742 -0.0173,0.0297 -0.0323,0.0617 -0.0469,0.0937 0.19727,0.0222 0.3942,0.0466 0.58984,0.0801 0.0494,0.008 0.17918,0.0146 0.14258,0.0488 -0.0156,0.0145 -0.041,0.0258 -0.0703,0.0352 0.0419,0.0134 0.0758,0.0257 0.0488,0.0234 -0.0171,-10e-4 -0.0339,-0.008 -0.0508,-0.0117 0.0151,0.0129 0.0291,0.0274 0.041,0.0449 0.0487,0.0719 0.0379,0.16849 -0.004,0.25976 0.009,6.8e-4 0.0182,0.003 0.0273,0.004 0.28652,0.0213 0.57502,0.0135 0.85937,0.0547 0.0225,0.003 0.057,0.0116 0.0918,0.0234 0.0385,0.003 0.0769,0.007 0.11523,0.0117 0.0333,0.004 0.002,0.0102 -0.0449,0.0156 0.0479,0.0213 0.0772,0.043 0.041,0.0469 -0.24286,0.026 -0.48704,-0.021 -0.73047,-0.041 -0.12746,-0.0105 -0.2692,-0.0254 -0.40039,-0.0371 -0.0124,0.0187 -0.0268,0.0358 -0.041,0.0527 0.0107,0.0414 0.0204,0.0848 0.0273,0.13282 0.002,0.0161 -0.002,0.0289 -0.01,0.0391 0.18505,0.009 0.50441,-0.009 0.55274,0.0586 l 0.002,0.002 c 0.009,0.0153 0.005,0.0378 -0.0176,0.0625 -0.14874,0.16008 -0.4266,0.0209 -0.6543,-0.006 0.0106,0.0263 0.0189,0.0528 0.0274,0.0801 0.013,10e-4 0.026,0.005 0.0391,0.006 0.40217,0.0535 0.80747,0.0794 1.20508,0.16016 0.0469,0.01 0.13574,0.042 0.19922,0.0723 0.0635,0.0303 0.10216,0.0594 0.0547,0.0644 -0.37496,0.0385 -0.75306,-0.0181 -1.1289,-0.0469 -0.10097,-0.008 -0.20181,-0.0171 -0.30274,-0.0254 0.002,0.006 0.004,0.0112 0.006,0.0176 -0.069,0.0446 -0.13423,0.0968 -0.20703,0.13477 -0.0172,0.009 -0.039,0.007 -0.0586,0.008 0.005,0.0282 0.009,0.0574 0.0117,0.0859 0.002,0.0245 -0.0466,0.0203 -0.0703,0.0273 -0.0287,0.009 -0.0586,0.0122 -0.0879,0.0176 0.0206,0.002 0.0422,0.007 0.0625,0.01 0.1751,-0.005 0.35428,-0.008 0.52539,-0.002 0.0922,0.003 0.18689,-0.007 0.27539,0.0195 0.0394,0.0115 0.0637,0.0226 0.084,0.0332 -0.0327,-0.002 -0.0669,0.0249 -0.10156,0.0254 -0.0877,10e-4 -0.17608,-0.0165 -0.26368,-0.0195 -0.014,-4.4e-4 -0.0272,2.9e-4 -0.041,0 0.0705,0.008 0.14172,0.0172 0.21289,0.0254 l 0.10937,0.002 c 0.0272,-0.008 0.0931,-0.016 0.10352,-0.0254 -0.003,-0.002 -0.007,-0.004 -0.0117,-0.006 0.003,-4.3e-4 0.006,-10e-4 0.01,0 0.005,0.002 0.004,0.004 0.002,0.006 v 0.002 c 0.029,0.0194 0.0296,0.0367 0.0156,0.0508 4.84304,0.55681 10.60379,1.20466 14.34765,1.73828 1.49674,0.21334 3.42547,-0.32662 4.46875,0.76758 1.22705,1.28686 0.81158,3.46394 1.2168,5.19531 -0.72791,0.1395 -1.45374,0.29411 -2.17969,0.44532 -0.005,0.009 -0.008,0.0183 -0.0137,0.0273 -0.31815,0.51633 -0.87865,0.48651 -1.51953,0.2793 -0.78017,0.15334 -1.5625,0.2965 -2.34961,0.4082 -1.85233,0.26286 -3.7279,0.34267 -5.58985,0.52539 -0.31713,0.13732 -0.74032,0.3198 -1.00781,0.43359 0.31862,0.87244 0.5502,1.79339 0.77344,2.66211 0.12795,0.49791 -0.81743,0.37245 -1.98828,0.10938 -0.0267,0.0406 -0.0494,0.0833 -0.0781,0.12305 -0.14609,0.20169 -0.33272,0.33001 -0.54687,0.4082 -0.27324,1.0254 -1.021,1.90896 -2.1211,2.66406 -0.0699,0.36869 -0.17702,0.7247 -0.35546,1.0586 -0.2083,0.38973 -0.5329,0.69297 -0.90821,0.94531 0.53872,0.19296 0.88862,0.38096 1.58789,0.61523 2.58274,0.86523 2.1225,0.74216 4.00586,1.00196 0.99681,0.1375 0.85104,1.15212 -0.14453,1.00586 -0.43227,-0.0635 -0.87304,-0.0833 -1.29687,-0.18946 -0.98197,-0.24586 -1.95234,-0.54149 -2.91211,-0.86328 -0.7199,-0.24136 -1.08115,-0.4349 -1.63282,-0.63281 -0.0603,0.35059 -0.15619,0.69527 -0.28125,1.03515 0.58654,1.27476 1.15459,2.55173 0.94532,3.88086 -0.1451,0.9216 -1.85252,0.24759 -2.78516,0.27149 -0.42238,0.0108 -0.84508,0.005 -1.26758,0.01 0.0354,0.0731 0.0671,0.1494 0.0918,0.23047 1.42542,4.68674 -1.8526,5.28694 -4.79688,5.24805 0.28961,2.33561 -0.25784,1.32974 -1.06836,0.46094 -0.51942,0.19893 -1.06156,0.35141 -1.57031,0.56836 -0.15426,0.0658 -0.46653,0.24376 -0.60156,0.31836 -0.43088,0.26938 -0.88408,0.47509 -1.34766,0.64453 0.0134,0.006 0.0248,0.0126 0.0312,0.0215 0.0251,0.0347 0.0374,0.075 0.0566,0.11328 -0.007,0.0266 -0.0115,0.0539 -0.0195,0.0801 -0.008,0.0263 -0.0555,0.0721 -0.0644,0.0801 -0.037,0.0337 -0.0875,0.0648 -0.13477,0.0859 0.006,0.002 0.012,0.007 0.0176,0.01 l 0.002,0.002 c 0.0148,0.005 0.0303,0.006 0.0449,0.0117 0.0311,0.0708 0.0918,0.13365 0.0937,0.21094 6.3e-4,0.0224 -0.0212,0.036 -0.0449,0.0469 0.0179,0.06 -0.015,0.14139 -0.12305,0.19921 h -0.002 c -0.0158,0.004 -0.0313,0.009 -0.0469,0.0137 -0.008,0.002 -0.0174,0.008 -0.0254,0.01 -0.0172,0.004 -0.054,0.01 -0.0664,0.0117 -0.0157,9.9e-4 -0.0312,8.1e-4 -0.0469,0.002 -0.013,4e-4 -0.026,3e-5 -0.0391,0 -0.0575,0 -0.11438,7.7e-4 -0.17188,0.002 -0.0437,-1e-5 -0.0494,10e-4 -0.0918,-0.002 -0.0269,-10e-4 -0.0551,-0.005 -0.082,-0.006 -0.025,-7.2e-4 -0.0841,-2.5e-4 -0.10742,0 -0.046,0.002 -0.0927,0.005 -0.13867,0.006 -0.0224,3.7e-4 -0.044,-6.8e-4 -0.0664,0 -0.0318,10e-4 -0.0638,0.006 -0.0957,0.008 -0.0244,0.12301 -0.15851,0.23543 -0.4043,0.23633 -0.0829,6e-5 -0.16514,9.9e-4 -0.24804,0 -0.18507,9.9e-4 -0.36976,0.0104 -0.55469,-0.002 -0.24707,-0.016 -0.49466,-0.0243 -0.74219,-0.0293 -0.034,-0.002 -0.0677,-0.006 -0.10156,-0.008 -0.0201,-0.002 -0.0401,-0.005 -0.0606,-0.006 -0.12895,-0.008 -0.25761,-0.007 -0.38672,-0.008 -0.0674,-0.001 -0.13572,-0.005 -0.20312,-0.006 -0.0625,-0.003 -0.22436,-0.009 -0.28906,-0.0137 -0.1173,-0.009 -0.23397,-0.0243 -0.35157,-0.0293 -0.0964,0.001 -0.0639,-1.8e-4 -0.16015,0.002 -0.0953,0.002 -0.19076,0.004 -0.28516,-0.0117 0.004,-0.012 0.002,-0.004 -0.0293,-0.004 -0.0143,-1.4e-4 -0.0287,-7e-5 -0.043,0 -0.0685,0 -0.13657,0.002 -0.20507,0.004 -0.12641,7e-4 -0.24942,-0.004 -0.375,-0.0195 -0.0276,-0.004 -0.0565,-0.01 -0.084,-0.0137 -0.0245,-0.004 -0.0477,-0.007 -0.0723,-0.01 -0.24208,-0.0328 -0.3652,-0.16041 -0.37891,-0.28516 -0.0103,2.2e-4 -0.0237,-2.1e-4 -0.0332,0 -0.0416,10e-4 -0.0834,0.002 -0.125,0.004 -0.029,9.9e-4 -0.0751,0.0295 -0.0879,0.004 -0.04,-0.0816 -0.0283,-0.17983 -0.043,-0.26953 0.0616,-0.0213 0.0275,-0.0101 0.10742,-0.0332 0.0926,-0.0268 0.18544,-0.0545 0.27734,-0.084 0.0241,-0.007 0.0484,-0.0135 0.0723,-0.0215 0.001,-3.8e-4 0.005,-8.1e-4 0.006,-0.002 -8e-5,-0.0131 -3.8e-4,-0.0259 0,-0.0391 -0.0151,2.8e-4 -0.0301,2.4e-4 -0.0449,0 -0.001,-0.0156 -0.004,-0.0313 -0.006,-0.0469 -0.009,10e-4 -0.009,4.8e-4 -0.0195,0.002 -0.029,0.003 -0.17999,0.0224 -0.20703,0.0254 -0.0265,0.002 -0.065,0.0254 -0.0801,0.004 -0.0532,-0.0771 -0.0649,-0.17402 -0.0977,-0.26172 0.0145,-0.005 0.0281,-0.0136 0.043,-0.0176 0.0444,-0.0121 0.1048,-0.0197 0.1543,-0.0273 0.007,-0.07 0.0852,-0.1302 0.22265,-0.10742 0.0121,0.002 0.023,0.005 0.0352,0.006 0.0132,0.002 0.0278,0.003 0.041,0.004 0.0165,10e-4 0.0274,0.003 0.041,0.004 0,-0.005 -1.1e-4,-0.0104 0,-0.0156 -0.0535,-0.004 -0.1104,-0.007 -0.19531,-0.0117 -0.0402,-0.002 -0.16624,-0.006 -0.21094,-0.0156 -0.0449,-0.0102 -0.11751,0.002 -0.13281,-0.041 -0.0289,-0.0818 0.0164,-0.17337 0.0254,-0.25977 0.0221,-0.005 0.0439,-0.0123 0.0664,-0.0176 -0.0982,-0.0179 -0.19732,-0.0317 -0.29492,-0.0527 -1.89453,-0.40853 -0.34618,-0.15079 -1.51367,-0.33399 -1.83165,-0.54253 -3.20249,-0.69775 -2.32812,-4.5664 0.19884,-0.87978 0.95622,-1.2177 1.82617,-1.33008 -0.26185,-0.20343 -0.55092,-0.39312 -0.66797,-0.69336 -0.10277,-0.26363 -0.18607,-0.53248 -0.26172,-0.80469 -0.47705,-0.055 -0.9515,-0.11102 -1.40234,-0.17383 -1.70241,-0.23716 -3.37263,-0.66926 -5.0586,-1.0039 -1.22969,-1.73257 -3.38384,-3.09477 -3.68945,-5.19727 -0.17916,-1.23257 1.43443,-2.16324 2.53516,-2.74609 0.62114,-0.3289 1.37602,-0.60512 2.21093,-0.83789 -0.9896,-3.46087 1.97569,-6.95571 5.27735,-8.80664 0.60754,-0.34059 1.25555,-0.59197 1.91406,-0.82032 -3.27207,-1.39383 -2.21028,-5.32175 2.25781,-5.26171 0.1678,0.002 0.34024,0.0115 0.51758,0.0254 0.98256,0.0768 1.96696,0.12691 2.94727,0.22851 1.77617,0.18411 3.55014,0.39343 5.32421,0.59961 0.001,-0.0183 0.002,-0.0364 0.004,-0.0547 -0.24026,-0.0506 -0.48128,-0.0976 -0.7207,-0.15234 -0.082,3.4e-4 -0.16411,-1.1e-4 -0.2461,-0.002 -0.0286,-5.4e-4 0.0515,-0.0295 0.0801,-0.0293 0.0111,8e-5 0.0222,-9e-5 0.0332,0 -0.0418,-0.01 -0.0832,-0.0196 -0.125,-0.0293 -0.002,-5.7e-4 -0.005,5.8e-4 -0.008,0 -0.13243,-0.0307 -0.26413,-0.0609 -0.39648,-0.0918 -0.18109,-0.0423 -0.36259,-0.0837 -0.54297,-0.12891 -0.0937,-0.0234 -0.1953,-0.0304 -0.2793,-0.0781 -0.0197,-0.0112 0.005,-0.0412 0.0137,-0.0645 -0.008,-0.0143 8.5e-4,-0.0161 0.0274,-0.006 0.0767,0.007 0.15375,0.0143 0.23047,0.0215 -0.003,-0.0159 0.002,-0.034 0.0215,-0.0566 0.1796,-0.20518 0.54578,0.0135 0.81836,0.0215 0.12433,0.004 0.24871,0.008 0.37305,0.0117 -0.0393,-0.004 -0.066,-0.007 -0.12891,-0.0137 0.0789,-0.009 0.15754,-0.0205 0.23633,-0.0312 -0.0769,-0.0102 -0.15341,-0.0206 -0.23047,-0.0293 0.14162,0.016 0.2063,0.0212 0.26367,0.0254 0.001,8e-5 0.005,-9e-5 0.006,0 0.0573,-0.008 0.11459,-0.0123 0.17188,-0.0176 -0.12505,-0.0959 -0.24813,-0.19619 -0.37891,-0.27929 0.015,-0.004 0.0192,-0.006 0.0312,-0.01 -0.16951,-0.009 -0.33987,-0.0126 -0.50586,-0.0449 -0.028,-0.005 -0.003,-0.0817 0.0254,-0.082 0.20823,-0.003 0.41559,0.0271 0.62305,0.0508 0.005,-0.0303 0.0111,-0.0623 0.0234,-0.0996 0.0363,-0.10947 0.20299,-0.0987 0.31836,-0.13477 v -0.002 c -7.5e-4,-0.011 0.009,-0.01 0.0215,-0.006 0.001,-5.3e-4 0.003,-7.9e-4 0.004,-0.002 0.0297,-0.001 0.0602,10e-4 0.0898,-0.002 0.0306,-0.004 0.0597,-0.0135 0.0898,-0.0195 0.0439,-0.009 0.37562,-0.08 0.38672,-0.082 0.17275,-0.03 0.27885,-0.0431 0.39258,-0.0527 0.001,-0.0473 0.009,-0.0893 0.0254,-0.125 -0.054,-0.37974 -0.12389,-0.4727 0.0781,-0.4707 0.002,-0.003 0.006,-0.005 0.01,-0.004 0.004,7.4e-4 0.01,0.004 0.0137,0.004 0.004,1.7e-4 0.007,-2.4e-4 0.0117,0 0.0642,-8.7e-4 0.12744,-10e-4 0.19141,0.006 -0.0123,-0.14389 0.12294,-0.29492 0.4082,-0.29492 z m 4.94531,1.68554 c -0.002,0.004 -0.004,0.009 -0.006,0.0137 0.0404,0.005 0.0809,0.008 0.1211,0.0137 0.0508,0.007 0.10694,0.009 0.16406,0.01 -0.0932,-0.0119 -0.18587,-0.0268 -0.2793,-0.0371 z m -8.11523,0.0234 c -0.0633,0.003 -0.12691,0.0134 -0.1875,0.0332 0.21597,0.0204 0.43131,0.043 0.64648,0.0703 0.006,5.1e-4 0.0177,7e-4 0.0234,0.002 0.20699,0.0285 0.41408,0.056 0.6211,0.084 0.0513,-0.034 0.0998,-0.0734 0.14843,-0.11328 -0.21095,-0.007 -0.42192,-0.0133 -0.63281,-0.0195 -0.20434,-0.006 -0.41692,-0.0653 -0.61914,-0.0566 z m 1.10352,0.18945 c 0.23757,0.0321 0.4752,0.0638 0.71289,0.0957 0.0498,-0.004 0.11144,-0.006 0.15625,-0.004 0.1226,0.005 0.18969,0.0132 0.26367,0.0254 7.3e-4,-0.003 0.003,-0.006 0.004,-0.01 -0.13562,-0.008 -0.26915,-0.0244 -0.40039,-0.0606 -0.096,-0.0264 -0.18601,-0.069 -0.27148,-0.11914 -0.30712,-0.003 -0.23199,-0.0349 -0.46484,0.0723 z m -1.31836,-0.14648 c -0.0501,0.0218 -0.0156,0.0343 0.0605,0.041 -0.0306,-0.0102 -0.0511,-0.0246 -0.0605,-0.041 z m 8.98047,0.0273 c 0.008,0.005 0.0159,0.0101 0.0234,0.0156 0.005,-10e-4 0.011,-0.002 0.0156,-0.004 -0.0142,-0.004 -0.0252,-0.007 -0.0391,-0.0117 z m -8.9629,0.0254 c 0.17967,0.045 0.36066,0.0869 0.54102,0.12891 0.17363,0.0405 0.34769,0.0791 0.52148,0.11914 0.232,0.001 0.4634,0.006 0.69532,0.0137 -0.14247,-0.0303 -0.28459,-0.0591 -0.42774,-0.0859 -0.44228,-0.0831 -0.88428,-0.1263 -1.33008,-0.17579 z m 1.05664,0.31055 c 0.0444,0.0102 0.0884,0.0213 0.13282,0.0312 0.0748,-3e-4 0.14976,-0.003 0.22461,-0.004 -0.0803,-0.008 -0.16016,-0.0162 -0.24024,-0.0254 -0.0391,-4.7e-4 -0.0781,-0.002 -0.11719,-0.002 z m 0.30469,0.006 c 0.0318,0.007 0.0638,0.0143 0.0957,0.0215 h 0.002 c 0.13797,-0.002 0.27609,-0.006 0.41406,-0.008 -0.17046,-0.006 -0.34118,-0.0105 -0.51172,-0.0137 z m 0.13477,0.0293 c 0.13946,0.0311 0.28037,0.054 0.41992,0.084 0.001,-0.0143 0.002,-0.0287 0.004,-0.043 -0.1411,-0.0144 -0.28269,-0.028 -0.42383,-0.041 z m 7.32812,0.3125 c 6.9e-4,10e-4 8e-4,0.003 0.002,0.004 0.0182,-4e-5 0.0365,-2.4e-4 0.0547,0 -0.0189,-8.5e-4 -0.0377,-0.003 -0.0566,-0.004 z m 0.0781,0.21093 c 0.009,0.0331 0.0202,0.0666 0.0293,0.0996 0.10876,0.009 0.21741,0.019 0.32618,0.0274 0.34939,0.0267 0.69865,0.033 1.04882,0.0449 -0.0672,-0.002 -0.15184,-0.007 -0.19531,-0.0117 -0.40002,-0.0467 -0.79801,-0.1053 -1.19726,-0.1582 -0.004,-4.1e-4 -0.008,-0.002 -0.0117,-0.002 z m -15.26953,9.20313 c -1.26322,0.41188 -2.40434,0.78814 -3.35547,1.56445 0.90988,-0.34666 1.88514,-0.68421 2.89258,-1.01367 0.14186,-0.19168 0.29681,-0.37577 0.46289,-0.55078 z m -9.41992,10.42578 c -0.38795,0.13858 -0.77685,0.28232 -1.16797,0.44922 -0.25738,0.10982 0.66585,0.37251 0.82812,0.14453 0.13321,-0.18716 0.24215,-0.3873 0.33985,-0.59375 z m 14.25781,12.58203 c 0.004,0.005 0.0236,0.008 0.0176,0.006 -0.003,-10e-4 -0.0117,-0.004 -0.0176,-0.006 z m -55.1543,144.83985 c 0.6538,0.0306 1.30401,0.13486 1.95899,0.10351 0.10797,-0.003 0.21619,-0.009 0.32421,-0.0117 0.47941,-0.0129 0.39917,-0.0161 1.00782,0.0625 0.10404,0.0135 0.20689,0.0404 0.31054,0.0566 0.1263,0.0193 0.087,0.007 0.043,-0.01 0.47407,-0.0443 0.95024,-0.0274 1.42578,-0.0234 2.10182,0.17781 2.36067,-0.0867 2.76563,3.86914 0.0446,0.43594 -0.76329,0.43235 -1.14453,0.64844 0.0334,-0.008 0.13446,-0.0334 0.10156,-0.0234 -0.5289,0.15537 -1.06179,0.29914 -1.58008,0.48633 2e-4,5.9e-4 -1.9e-4,10e-4 0,0.002 0.42293,-0.0442 0.35854,0.0393 0.0508,0.1836 0.12902,0.61037 -0.0618,1.33441 -0.65039,2.00976 -0.0969,0.35067 -0.1862,0.70431 -0.31445,1.04297 -0.23069,0.61431 -0.46232,1.23311 -0.74024,1.82812 -0.0621,0.13293 -0.38343,0.72305 -0.46093,0.86915 -0.0814,0.15346 -0.16159,0.30709 -0.24219,0.46093 -0.34657,0.70904 -0.35767,0.71761 -0.70703,1.50586 -0.37459,0.84521 -0.71328,1.70662 -1.12891,2.53321 -0.26302,0.54517 -0.48902,1.09857 -0.72851,1.65429 -0.28562,0.66275 -0.60369,1.31263 -0.85938,1.98828 -0.36028,0.93531 -0.71113,1.86952 -1.12891,2.78125 -0.14381,0.31391 -0.29598,0.62524 -0.44335,0.9375 -0.11962,0.23367 -0.24771,0.4627 -0.35743,0.70118 -0.1238,0.26908 -0.22807,0.54682 -0.34179,0.82031 -0.7676,2.0435 0.21557,-0.61876 -0.59571,1.73633 -0.23538,0.6833 -0.43404,1.2781 -0.91211,1.82226 -0.08,0.924 -0.0684,1.85274 -0.13867,2.77735 -0.0243,0.68547 -0.028,1.01921 -0.0801,1.67187 -0.008,0.0965 -0.0292,0.19226 -0.0332,0.28906 -0.003,0.0823 0.006,0.1641 0.0137,0.2461 0.0136,0.13648 0.0707,0.2725 0.0508,0.4082 -0.0731,0.4981 -0.21885,0.98317 -0.32812,1.47461 -1.4051,1.09865 -0.9413,0.96736 -1.76758,1.09961 -0.009,0.003 -0.0168,0.007 -0.0254,0.01 -0.072,0.0251 -0.30154,0.0448 -0.22656,0.0312 0.12666,-0.023 0.16188,-0.0266 0.25195,-0.041 0.21622,-0.0775 0.42387,-0.17843 0.63477,-0.26953 0.009,-0.004 0.0324,-0.0206 0.0234,-0.0176 -0.47222,0.13898 -0.94281,0.28544 -1.41406,0.42773 0.003,-8e-5 0.007,9e-5 0.01,0 0.006,-10e-5 0.0257,9.2e-4 0.0195,0.002 -0.0137,0.002 -0.0272,0.002 -0.041,0.002 0.004,-0.001 0.008,-0.003 0.0117,-0.004 -0.034,9.2e-4 -0.0676,0.002 -0.10156,0.004 -0.35798,0.0198 -0.71515,0.0521 -1.07422,0.0312 -0.54991,-0.0283 -1.04151,-0.0437 -1.5957,-0.13086 -0.49949,-0.0786 -0.98822,-0.2263 -1.47071,-0.37305 -0.55095,-0.16758 -0.66328,-0.0385 -0.49804,-0.20117 -0.041,-0.0157 -0.0446,-0.0127 -0.0606,-0.0176 -0.32823,0.0575 -0.661,0.0284 -1.06836,-0.0566 -2.25194,-1.24871 -1.53419,-0.37399 0.46094,-4.27148 -0.45385,0.14661 -0.92067,0.28957 -1.28711,0.58789 -0.28867,0.23501 -0.30728,0.68569 -0.53711,0.97852 -0.22897,0.29171 0.16286,-0.48585 0.22266,-0.60547 0.15354,-0.22406 0.3031,-0.45081 0.46093,-0.67188 0.0393,-0.055 0.0957,-0.0959 0.14258,-0.14453 0.0358,-0.0371 0.0737,-0.0722 0.10938,-0.10938 0.0216,0.0186 0.1011,0.003 0.27734,-0.0684 0.0824,-0.14201 0.14399,-0.23438 0.20898,-0.33594 -0.0472,0.0314 -0.0925,0.0658 -0.14062,0.0957 -0.0914,0.0567 0.0537,-0.0613 0.18945,-0.17578 0.003,-0.005 0.007,-0.0112 0.01,-0.0156 -0.0297,0.0218 -0.0548,0.0367 -0.084,0.0586 0.0271,-0.0229 0.0544,-0.0461 0.082,-0.0684 0.005,-0.004 0.009,-0.006 0.0156,-0.0117 0.0468,-0.0681 0.11588,-0.14398 0.17383,-0.21484 -0.0158,-0.10196 -0.0351,-0.2029 -0.0527,-0.30469 -0.18921,-1.09606 -0.0449,-1.95985 0.28711,-2.56836 -0.0869,-0.20607 -0.15867,-0.45057 -0.21679,-0.7793 -0.2125,-1.20194 0.0811,-2.2145 0.51172,-3.33203 0.8047,-2.08822 2.0716,-4.4079 3.0664,-6.35547 0.637,-1.20454 1.56816,-3.00528 2.43164,-4.57226 -0.49382,-0.47763 -0.96312,-1.00179 -1.48828,-1.41992 0.29446,-0.47403 0.51392,-1.00489 0.88477,-1.42188 0.38874,-0.43711 2.25245,-1.48946 2.64843,-1.7207 0.63859,-0.71283 0.93856,-1.05156 1.25586,-1.39844 0.0571,-0.0947 0.0715,-0.1797 0.13868,-0.28125 0.46993,-0.71047 1.04046,-1.33373 1.66406,-1.90039 -3.1582,-0.51116 -2.77137,-4.12465 1.16406,-4.36914 0.21879,-0.0136 0.43832,-0.0122 0.65625,-0.002 z m -13.14844,30.67773 c -0.0154,0.0229 -0.0334,0.056 -0.0488,0.0801 0.0866,-0.0576 0.16566,-0.12612 0.25,-0.1875 0.002,-0.0132 -9.3e-4,-0.0243 0,-0.0371 -0.0802,0.0557 -0.0548,0.0301 -0.14257,0.0937 -0.0197,0.0172 -0.0368,0.0324 -0.0586,0.0508 z m 8.91016,-3.24609 c 0.0109,-0.0264 -0.036,0.0481 -0.041,0.0762 -0.002,0.01 -0.002,0.0196 -0.004,0.0293 0.0148,-0.0352 0.0304,-0.0702 0.0449,-0.10546 z" />
    </clipPath>
    <clipPath
       clipPathUnits="userSpaceOnUse"
       id="clipPath6082">
      <path
         id="path6084"
         style="fill:#ff0000;fill-opacity:1;fill-rule:nonzero;stroke:none"
         d="M 310.96289,126.16992 V 895.84961 H 524.91602 V 126.16992 Z m 64.03125,387.32813 c 0.0557,1.8e-4 0.1122,0.003 0.16797,0.004 0.034,0.003 0.0676,0.008 0.10156,0.0117 0.0185,0.002 0.038,0.005 0.0566,0.006 0.0625,0.004 0.0808,-0.002 0.14649,0 0.0683,0.002 0.11644,0.008 0.18164,0.0137 0.0116,10e-4 0.0217,0.002 0.0332,0.002 0.0264,0 0.0558,-0.003 0.082,-0.004 0.0555,-10e-4 0.076,5e-5 0.13281,0 0.0624,0.002 0.12345,0.0126 0.18555,0.0176 0.0174,0.001 0.0354,-1.5e-4 0.0527,0.002 0.0593,0.005 0.11628,0.0151 0.17578,0.0156 0.0138,-2.3e-4 0.0273,-5.5e-4 0.041,0 0.0683,0.005 0.14635,0.009 0.21485,0.0117 0.0396,0.002 0.0795,0.002 0.11914,0.004 0.0841,0.004 0.16785,0.009 0.25195,0.0137 0.19648,0.003 0.39331,-0.002 0.58984,-0.002 0.15789,9.7e-4 0.31477,1.3e-4 0.47266,0 0.0991,-0.001 0.0615,0.006 0.11719,-0.006 0.13281,-0.0164 -0.0229,0.002 0.14258,-0.0137 0.11177,-0.0103 -0.0335,-0.002 0.13867,-0.0117 0.0773,-0.004 0.10048,-0.005 0.17578,-0.004 0.0206,0.001 0.0418,0.005 0.0625,0.004 0.004,0 -0.0157,-0.005 -0.0117,-0.006 0.0173,-0.004 0.035,-0.004 0.0527,-0.006 0.066,-0.007 0.13107,-0.009 0.19727,-0.006 0.0455,0.004 0.0911,0.002 0.13672,0.002 0.16014,-0.002 0.28642,0.032 0.38086,0.084 0.0354,-0.002 0.07,-0.005 0.10547,-0.006 0.11803,-0.003 0.1773,0.002 0.29297,0.008 0.14057,0.007 0.12238,0.006 0.26171,0.008 0.0414,-1.7e-4 0.0817,4.1e-4 0.12305,0 0.0845,-9.6e-4 0.14432,-0.006 0.22852,0.006 0.0352,0.005 0.10151,-0.0121 0.10351,0.0234 0.0389,0.72577 0.16311,0.72386 -0.082,0.76563 0.002,0.1152 -0.01,0.20605 -0.0312,0.27734 0.003,0.0347 0.004,0.0767 0.006,0.11523 0.28923,0.0153 0.57863,0.0274 0.86719,0.0547 1.6339,0.15492 2.19403,1.16479 1.86133,1.94531 1.27119,0.14478 2.6457,0.44821 2.88671,1.18165 0.01,0.0301 0.0173,0.0616 0.0274,0.0918 0.21208,0.0217 0.43851,-0.0175 0.63281,0.0781 0.009,0.004 0.0149,0.009 0.0234,0.0137 0.47137,-0.15086 0.90408,-0.19882 1.22461,0.0703 0.19389,0.16283 -0.29454,0.14705 -0.66016,0.23242 1.52899,0.85603 2.26251,1.74544 1.53906,2.28321 0.58134,0.0453 1.17951,0.0859 1.82422,0.11132 5.34235,0.21028 1.35236,0.28199 -3.82031,0.31836 0.0194,0.11362 0.0317,0.22803 0.0488,0.3418 0.57474,-0.007 1.31916,-0.414 1.75781,-0.10937 0.33725,-0.0942 0.68932,-0.2069 0.74414,0.0547 0.0657,0.31333 0.0928,0.65071 0.084,0.98829 0.0182,0.002 0.0365,0.003 0.0547,0.006 0.11019,0.0169 0.0518,0.0434 -0.0547,0.0742 -0.005,0.11868 -0.0174,0.23603 -0.0332,0.35352 0.0297,0.005 0.0762,0.009 0.10352,0.0137 0.26614,0.0441 0.62556,0.0713 0.87695,0.16992 -0.15376,-0.32686 -0.31566,-0.65072 -0.45508,-0.98242 0.46379,0.72668 0.26036,0.40881 0.45899,0.98438 0.10371,0.0417 0.2181,0.0765 0.22851,0.17578 0.0373,-0.18402 -0.0511,-0.64979 -0.0215,-1.56641 -0.008,-0.0702 -0.013,-0.13805 -0.0215,-0.21289 0.0205,-0.005 0.0208,0.0689 0.0234,0.0508 0.009,-0.0617 0.0136,-0.2497 0.01,-0.1875 -0.009,0.13182 -0.008,0.23268 -0.0117,0.34961 0.0429,0.379 0.0805,0.70961 0.11328,1.15039 0.002,0.0244 -0.004,-0.0557 -0.0254,-0.0684 -0.0146,-0.009 -0.006,0.0338 -0.004,0.0508 0.0364,0.24958 0.1171,0.49587 0.1211,0.74805 3e-4,0.0197 -2.5e-4,0.0276 -0.002,0.0312 -1.9e-4,4.8e-4 2.3e-4,0.004 0,0.004 0.0373,0.19356 0.0666,0.38726 0.0918,0.58203 0.0677,0.21675 0.13778,0.45984 0.0899,0.34961 -0.0338,-0.0774 -0.0339,-0.0873 -0.0645,-0.15821 0.001,0.013 0.003,0.026 0.004,0.0391 0.14035,0.583 0.26625,1.05163 0.33789,1.67187 0.10784,0.0752 0.22244,0.14045 0.32226,0.22656 0.10865,-0.0135 0.21753,-0.0255 0.32618,-0.0391 0.01,-0.0207 0.0168,-0.0442 0.0273,-0.0645 0.0144,-0.0276 0.0519,0.0339 0.0781,0.0508 -0.0352,0.004 -0.0703,0.009 -0.10546,0.0137 -0.0377,0.0782 -0.0744,0.15796 -0.10547,0.24219 0.61927,0.6243 1.06271,1.46776 1.40625,2.26953 0.15424,0.35997 -0.58699,0.35195 -1.44141,0.27539 0.0828,0.21714 0.17516,0.43216 0.21094,0.66016 0.0361,0.22977 0.0484,0.46158 0.0684,0.69336 0.20739,0.51073 0.43788,1.01042 0.64453,1.52148 0.0768,0.16288 0.36713,0.7675 0.60547,1.30469 0.20262,0.15438 0.22884,0.58643 0.33594,0.85156 0.56975,1.4098 0.43573,1.50184 0.56054,3.14063 -0.1483,1.25412 -0.098,1.26135 -0.48242,2.53906 -0.0906,0.30098 -0.34428,1.19679 -0.33008,0.88281 0.023,-0.50769 0.37322,-0.97445 0.35742,-1.48242 -0.0534,-1.71832 -0.0951,-2.15147 -0.37695,-2.75781 -4.9e-4,0.24938 -0.0571,0.53621 -0.33789,0.95703 0.37092,0.9044 -0.12427,1.07827 -0.76953,1.07812 -0.20034,0.68823 -0.57105,1.29451 -1.03711,1.85742 0.459,0.84794 0.41821,1.20952 -0.43945,1.6211 -0.0273,0.005 -0.0548,0.009 -0.082,0.0137 0.16424,0.36944 0.29366,0.68897 0.38671,0.96289 0.17684,-0.0235 0.32456,-0.0228 0.31055,0.11133 -0.0285,0.27302 -0.057,0.47834 -0.0859,0.70312 0.19481,-0.0141 0.35716,0.012 0.39649,0.17383 0.3873,1.59285 0.40652,2.33915 0.11719,2.67969 0.37555,0.55623 0.47179,0.90937 0.45117,1.17969 0.058,0.007 0.0345,0.003 0.14453,0.0156 0.11722,0.0162 0.23422,0.0326 0.35156,0.0488 0.004,3.5e-4 0.008,-3.6e-4 0.0117,0 0.27237,0.0249 0.54368,0.0519 0.81641,0.0723 0.0332,0.007 0.0567,0.0116 0.0859,0.0176 0.027,-0.006 0.0499,-0.008 0.0488,0.01 0.29571,0.0593 0.36581,0.08 0.27344,0.33984 0.20529,-0.23528 0.38354,-0.36299 0.40234,0.0742 0.003,0.0723 0.0202,0.1452 0.01,0.2168 -0.0359,0.24252 -0.11166,0.26318 -0.28125,0.44336 -0.0711,0.0316 -0.14077,0.07 -0.21484,0.0937 -0.11494,0.0371 -0.29604,0.0458 -0.41211,0.0488 -0.22354,0.006 -0.44646,-0.01 -0.66993,-0.0117 -0.14187,-0.003 -0.20323,-0.005 -0.3457,0.002 -0.29645,0.015 -0.59108,0.062 -0.88867,0.0508 -0.41444,10e-4 -0.82775,-0.002 -1.24219,-0.002 -0.45857,0.004 -0.91877,0.0171 -1.37695,-0.0117 -0.0824,-0.003 -0.1637,-0.009 -0.2461,-0.01 -0.0863,-0.002 -0.17346,9.6e-4 -0.25976,0.002 -0.3315,0.004 -0.66288,0.0102 -0.99414,-0.008 -0.6033,-0.0261 0.099,0.002 -0.53321,-0.0176 -0.13239,-0.004 -0.26595,-0.0156 -0.39843,-0.0176 -0.14847,-0.002 -0.29685,0.009 -0.44531,0.002 -0.35926,-0.008 -0.16413,-0.002 -0.5293,-0.0156 -0.10228,-0.003 -0.20446,-0.004 -0.30664,-0.01 -0.27414,-0.0157 -0.5485,-0.0499 -0.82227,-0.0703 -0.4018,-0.0306 -0.80241,-0.0526 -1.20508,-0.0684 -0.0799,-0.003 -0.16023,-0.006 -0.24023,-0.008 -0.0697,-0.002 -0.13941,-0.002 -0.20898,-0.006 -0.0597,-0.003 -0.12019,-0.0106 -0.17969,-0.0156 -0.034,-0.005 -0.0675,-0.0116 -0.10157,-0.0176 -0.0235,-0.004 -0.0486,-0.002 -0.0703,-0.0117 -0.002,-7.8e-4 0.004,-0.002 0.006,-0.002 -0.0959,-0.002 -0.19028,0.01 -0.28515,-0.0215 0.0385,-0.31989 0.0604,-0.64297 0.11132,-0.96094 -0.058,-0.004 -0.11576,-0.008 -0.17382,-0.0117 v -0.002 c -1.02318,-0.0674 -1.08698,-1.03661 -0.19141,-1.10352 0.0597,-0.004 0.12317,-0.004 0.19141,0 0.045,0.003 0.0898,0.007 0.13476,0.01 -0.0121,-0.0481 -0.0344,-0.0612 -0.0449,-0.11719 -0.0921,-0.0453 -0.1805,-0.097 -0.26563,-0.1543 l -0.002,-0.002 h -0.002 c -0.18381,0.0412 -0.36829,0.0662 -0.55274,0.0293 -0.15975,-0.0319 0.0184,-0.0806 0.25391,-0.15625 -1.20694,-0.52979 -2.09798,-1.17374 -1.87695,-1.81055 -0.0543,-0.0392 -0.0932,-0.13344 -0.14453,-0.18164 -1.54298,0.0715 -3.08739,0.10402 -4.63282,-0.002 -4.0217,-0.60266 -7.65457,-0.42381 -9.21289,-6.31836 -0.17463,-0.66059 -0.12554,-1.32849 0.0391,-1.99219 -0.11106,-0.41445 -0.21837,-0.83125 -0.31641,-1.25195 -0.64743,-0.0153 -1.29501,-0.03 -1.94141,0.0176 -0.0378,-0.0136 -0.0733,-0.037 -0.11328,-0.041 -0.0848,-0.008 -0.23255,0.0896 -0.2539,0.008 -0.0104,-0.0401 0.0541,-0.0831 0.11718,-0.11523 -0.37584,0.15208 -0.73244,0.34877 -1.11328,0.48828 -1.26134,0.46206 -1.5245,0.4581 -2.80078,0.69531 -0.52334,0.0519 -1.04529,0.12565 -1.57031,0.15625 -2.56806,0.14951 -5.14522,-0.17259 -7.59375,-0.95898 -11.7816,-3.78389 -7.85263,-15.56716 3.95312,-11.85938 1.25052,0.39275 2.49894,0.45728 3.78906,0.24414 0.089,-0.0263 0.18948,-0.0299 0.26758,-0.0801 0.0508,-0.0328 -0.27233,0.004 -0.17773,-0.0293 0.16103,-0.0558 0.32151,-0.11144 0.48242,-0.16797 0.94551,-1.86775 3.24772,-2.68124 4.9375,-3.46875 1.00992,-0.29984 2.00852,-0.63992 3.0293,-0.90039 0.13752,-0.0351 0.27633,-0.0653 0.41406,-0.0996 0.13903,-0.34446 0.38115,-0.74987 0.78516,-1.25391 0.23878,-0.29789 0.65601,-0.32873 1.07226,-0.34375 0.26598,-0.177 0.49839,-0.38343 0.75781,-0.57226 0.5192,-0.37788 1.08609,-0.69143 1.70508,-0.87305 -0.0185,-0.008 -0.0352,-0.0183 -0.0508,-0.0332 -0.0186,-0.0178 -0.0295,-0.0299 -0.0469,-0.0469 -0.012,-3e-5 -0.0172,1.1e-4 -0.0352,0 0.011,-8.3e-4 0.0222,-9e-4 0.0332,-0.002 -0.0483,-0.0472 -0.0897,-0.092 -0.1289,-0.13281 -0.12453,0.0328 -0.26078,0.089 -0.32813,0 -0.004,-0.005 -0.006,-0.009 -0.01,-0.0137 -0.11506,0.0172 -0.17972,-0.0114 -0.13868,-0.19532 -0.36012,-0.5382 -0.1166,-0.54143 0.19532,-0.61328 0.36497,-0.0611 0.50038,-0.0872 0.89258,-0.14062 0.26856,-0.0366 0.62792,-0.0782 0.94726,-0.11524 -0.002,-0.10524 0.0125,-0.21027 0.0312,-0.3164 v -0.002 c -0.19771,-0.23504 -0.0326,-0.59907 0.49805,-0.58789 0.15095,0.003 0.3022,-0.004 0.45312,0 0.0583,0.001 0.11553,0.005 0.17383,0.008 0.15538,0.007 0.22781,0.009 0.38672,0.0195 0.0117,8.1e-4 0.0235,9e-4 0.0352,0.002 0.002,-2.6e-4 0.004,2.6e-4 0.006,0 0.0103,-0.002 0.021,-0.004 0.0313,-0.006 -0.002,-3.1e-4 -0.008,-9e-4 -0.006,-0.002 0.031,-0.007 0.0625,-0.0116 0.0937,-0.0176 0.17017,-0.0167 0.34129,0.007 0.51171,0 0.0191,-10e-4 0.0378,-0.004 0.0566,-0.006 0.0553,-0.0107 0.11027,-0.0139 0.16602,-0.0137 z m -3.86719,2.13281 0.002,0.002 c 0.0373,9e-5 0.0558,5.3e-4 0.0508,-0.006 -0.0175,0.001 -0.0352,0.003 -0.0527,0.004 z m 19.79297,8.77148 c -0.007,-0.0641 -0.0171,-0.12743 -0.0254,-0.1914 -0.0459,-0.14721 -0.0967,-0.31239 -0.0801,-0.23242 0.0336,0.16116 0.0612,0.26119 0.0937,0.39843 0.005,0.0114 0.007,0.0138 0.0117,0.0254 z m -8.5039,-6.86914 c -0.0165,0.008 -0.0182,0.024 -0.0352,0.0312 0.10092,0.0244 0.13003,0.11717 0.21094,0.15821 0.0971,0.0271 0.16011,0.0523 0.26953,0.0801 0.28966,0.0734 -0.0294,-0.0772 -0.44531,-0.26953 z m -14.0625,3.08399 c -0.0877,0.0841 -0.18351,0.18263 -0.29297,0.29883 0.14495,-0.0206 0.28806,-0.0394 0.43359,-0.0606 -0.0473,-0.0794 -0.0938,-0.15888 -0.14062,-0.23828 z m 22.25976,3.02148 c -6.9e-4,0.006 -0.003,0.0101 -0.004,0.0156 0.0461,0.11058 0.0857,0.20554 0.13085,0.31445 -0.0376,-0.11144 -0.0841,-0.22015 -0.12695,-0.33008 z m 1.46094,7.05469 c 0.0357,0.48525 0.0657,0.97157 0.13281,1.45312 0.0573,0.41149 0.004,-1.6295 -0.0312,-1.24609 0.0479,0.36637 0.0119,0.2294 -0.10156,-0.20703 z m 0.86523,4.92773 c -0.001,0.003 -0.003,0.005 -0.004,0.008 -0.0119,0.0438 0.008,0.0824 -0.008,0.12695 0.1037,0.0429 0.11769,0.1492 0.19336,0.21289 -0.0618,-0.11613 -0.10442,-0.20259 -0.18164,-0.34766 z m -17.07617,5.69336 c -0.17421,0.0734 -0.34806,0.14776 -0.51758,0.23243 -0.09,0.0449 0.18969,0.26558 0.24219,0.17968 0.0847,-0.13863 0.18087,-0.27499 0.27539,-0.41211 z m 65.68164,153.36328 c 0.45931,0.0287 -0.0534,-0.0154 -0.43945,0.0879 -0.11854,0.0317 -0.41102,0.0871 -0.32422,0.17383 0.43231,0.4319 0.78364,0.7385 1.08203,0.97071 0.6242,0.0335 1.15644,0.0593 2.60156,0.0918 0.13606,0.003 0.27211,8.3e-4 0.40821,0 0.12767,3.7e-4 0.25514,-0.005 0.38281,-0.004 0.0846,10e-4 0.25312,-0.0807 0.25391,0.004 0.004,0.39963 -0.0192,0.79875 -0.0508,1.19727 0.60679,-0.253 1.04982,-0.28327 0.35938,0.88476 0.0538,0.0676 0.0955,0.12913 0.14258,0.19336 1.24424,-0.0515 2.43654,0.023 2.93945,0.44727 l 0.002,0.002 c 0.54185,6.6e-4 1.05459,0.10155 1.51758,0.3711 0.79224,0.46123 1.80702,1.74273 1.23242,2.45703 -0.37919,0.4714 -0.92926,0.69646 -1.54101,0.82422 -0.16379,0.12673 -0.34878,0.20257 -0.54688,0.24609 0.17857,0.31911 0.36011,0.63311 0.57422,0.9043 -0.49516,0.17283 -0.99888,0.32332 -1.5039,0.47265 -0.37753,0.395 -1.03981,0.41636 -1.64844,0.51758 0.0698,0.11414 0.12577,0.23233 0.17187,0.35352 0.43904,-0.10289 0.87705,-0.20752 1.31641,-0.3086 0.0241,-0.007 0.0483,-0.011 0.0723,-0.0156 0.35791,-0.0823 0.71433,-0.17023 1.07226,-0.25195 1.05466,-0.17245 1.80391,-0.37125 1.20898,1.4121 1.80767,1.29102 0.49242,1.49158 -0.38867,1.61524 -0.006,0.0184 -0.0104,0.0359 -0.0176,0.0547 0.24495,0.3417 0.22556,1.07827 -0.0547,2.52539 0.2823,5.8e-4 0.55916,0.0305 0.82812,0.12109 2.27891,0.76722 1.90787,1.64319 0.90235,2.36133 0.73687,0.24027 1.82757,0.74359 1.52734,1.36133 -0.1977,0.40678 -0.52276,0.69747 -0.9043,0.93945 0.14356,0.12701 0.229,0.29111 0.21094,0.51172 0.44443,-0.003 0.88978,-0.01 1.33398,0.002 1.45198,0.0392 2.18424,0.3786 0.4043,3.08203 0.006,0.0299 0.0113,0.0622 0.0176,0.0918 0.016,0.075 -0.0345,0.0908 -0.12109,0.0723 -0.0221,0.0328 -0.0339,0.0564 -0.0566,0.0898 -0.23565,0.34607 -0.687,0.36877 -1.1543,0.36523 0.69996,0.92194 1.03611,1.56169 1.00195,2.07422 0.19383,-0.0305 0.4887,-0.1757 0.50196,-0.006 0.1202,1.54637 0.23008,2.31271 0.13867,2.71875 0.0674,0.1555 0.12385,0.29768 0.16797,0.42774 0.27132,0.004 0.87144,0.0176 0.88086,0.125 0.0636,0.72999 -0.009,1.46846 -0.13868,2.19531 0.93756,0.31955 1.63023,0.6643 0.40039,1.18164 -0.17565,0.0739 -0.34657,0.1604 -0.52734,0.2207 -0.0961,0.0321 -0.19824,0.0427 -0.29883,0.0547 -0.3198,0.0385 -0.63632,0.0272 -0.95703,0.0332 -0.59341,0.0487 -1.18701,0.11515 -1.7832,0.11915 -0.49742,0.0317 -0.99095,0.0918 -1.48828,0.125 -0.073,0.005 -0.14761,0.002 -0.22071,0.006 -0.0873,0.005 -0.17452,0.0145 -0.26172,0.0215 -0.85225,0.0871 -1.71139,0.13593 -2.5664,0.0488 -0.84805,-0.0831 -1.69807,-0.18648 -2.54883,-0.23828 -0.6957,-0.0424 -0.96281,-0.0362 -1.67187,-0.0117 -0.27875,0.01 -0.55735,0.0277 -0.83594,0.041 -0.24875,0.0147 -0.49693,0.041 -0.7461,0.043 -0.18996,0.002 -0.50031,0.14339 -0.57031,-0.0332 -0.24572,-0.61979 -0.42925,-1.27667 -0.52148,-1.94141 -0.084,-0.0505 -0.16632,-0.10602 -0.25196,-0.15234 0.0754,-0.18554 0.13644,-0.3789 0.19532,-0.57422 -0.001,-0.073 -0.0112,-0.1458 -0.01,-0.21875 7.3e-4,-0.0385 0.0462,-0.0722 0.10742,-0.10352 0.10426,-0.33913 0.22416,-0.66976 0.41602,-0.95703 -0.77876,-0.14139 -1.49146,-0.42344 -1.80078,-1.01758 -0.36776,-0.70636 -0.3166,-1.2825 -0.0352,-1.76171 -0.10083,-0.0507 -0.20126,-0.10307 -0.30273,-0.15235 -0.42687,-0.2372 -0.78142,-0.40766 -1.06836,-0.58008 -0.27201,-0.019 -0.54291,-0.0568 -0.81446,-0.084 7.6e-4,-0.80131 -0.36213,-1.72436 -0.26171,-2.49219 -0.14213,-0.0376 -0.27307,-0.10847 -0.38477,-0.23047 -0.0546,-0.0596 -0.0911,-0.12436 -0.12109,-0.1914 -0.62059,-0.0553 -1.06695,-0.14124 -1.22071,-0.27344 -0.70407,-0.60536 0.18698,-2.0583 0.91797,-2.63086 0.10636,-0.0833 0.22011,-0.14554 0.33984,-0.19727 0.0508,-0.065 0.0973,-0.13383 0.14454,-0.20312 -0.47302,0.15029 -0.93183,0.25389 -1.30469,-0.004 -2.17486,-1.50373 -1.94172,-2.37176 -1.06641,-3.06054 -0.64913,-0.31645 -1.1814,-0.89134 -1.59179,-1.5293 -0.28925,0.12471 -0.55276,0.1977 -0.67579,-0.0273 -0.44407,-0.81225 -0.70046,-1.89765 -0.46484,-2.80079 -0.0288,-0.0925 -0.0583,-0.18631 -0.082,-0.27734 -0.0373,-0.14291 0.0827,-0.18293 0.25586,-0.18945 0.007,-0.0132 0.0104,-0.0279 0.0176,-0.041 0.43916,-0.80583 1.71982,-0.6417 2.58789,-0.93945 0.42539,-0.14591 1.1141,-0.36451 1.71875,-0.56055 0.0138,-0.0398 0.0299,-0.0852 0.043,-0.12304 -1.80411,0.0845 -3.60041,0.1107 -5.41602,0.15039 -1.56835,0.008 -2.325,0.21791 -2.82812,-0.17579 -0.0813,0.0363 -0.19533,0.13605 -0.1836,0.0684 0.0143,-0.0827 0.0202,-0.1345 0.0332,-0.21289 -0.11108,-0.12914 -0.21142,-0.30165 -0.30664,-0.52539 h -0.002 c -0.089,-0.0513 -0.15002,-0.13313 -0.17773,-0.25195 -0.0462,-0.19804 -0.0812,-0.40857 -0.10938,-0.62305 -0.1058,-0.38177 -0.21487,-0.8204 -0.3418,-1.3789 -0.0263,-0.11576 0.0844,-0.15485 0.23047,-0.16993 -0.59444,0.0139 -0.82381,0.0365 -1.5625,0.13282 -0.2837,0.0104 -0.57104,0.0748 -0.85156,0.0312 -1.11051,-0.17265 -2.14852,-0.67544 -2.26172,-2.11914 -0.11438,-1.45869 1.44909,-2.21911 2.48047,-2.56641 0.99785,-0.33601 2.04587,-0.50264 3.06836,-0.75391 0.35488,-0.043 0.70811,-0.0926 1.0625,-0.14062 -0.11665,-0.98679 0.93911,-1.87054 2.73242,-1.3086 0.11326,-0.0417 0.23495,-0.0629 0.35156,-0.0957 0.1443,-0.013 0.28687,-0.0341 0.43165,-0.0391 0.11561,-0.004 0.23199,0.007 0.34765,0.01 0.13871,0.003 0.27729,0.007 0.41602,0.008 0.10036,10e-4 0.28198,-0.0986 0.30078,0 0.0133,0.0697 -0.0766,0.0873 -0.16602,0.10547 0.56881,-0.003 1.13823,-2.6e-4 1.70703,0 0.79024,-2.4e-4 1.57891,-0.004 2.36915,-0.002 0.0346,3e-5 0.0712,0.005 0.10546,0 0.007,-0.001 0.007,-0.0166 0.0137,-0.0176 0.48886,-0.0665 0.97744,-0.0486 1.46875,-0.0606 0.12652,-0.003 0.25255,-0.0145 0.3789,-0.0215 0.29638,-0.0306 0.59367,-0.0201 0.89063,-0.0371 0.15436,-0.009 0.30626,-0.0516 0.46093,-0.0586 0.10137,-0.005 0.20323,-0.002 0.30469,-0.004 z m -13.625,3.24415 c -0.25174,-0.017 -0.5193,0.23167 -0.78906,0.58203 0.19992,-0.007 0.31648,-0.0174 0.66406,-0.0234 0.20265,-0.004 0.44191,-10e-4 0.66406,-0.002 -0.16662,-0.37895 -0.34825,-0.54381 -0.53906,-0.55664 z m 7.41406,12.56445 c -0.0165,0.0129 -0.0343,0.0241 -0.0508,0.0371 -0.0332,0.0262 0.0593,0.15568 0.0586,0.11328 -0.001,-0.0597 -0.006,-0.0933 -0.008,-0.15039 z m 20.0918,13.68164 c -0.0254,-0.006 -0.0541,-0.007 -0.0566,0.008 -2.3e-4,10e-4 2.3e-4,0.003 0,0.004 0.0294,6.4e-4 0.0585,0.003 0.0879,0.004 0.015,0 -0.006,-0.01 -0.0312,-0.0156 z" />
    </clipPath>
    <clipPath
       clipPathUnits="userSpaceOnUse"
       id="clipPath6092">
      <path
         id="path6094"
         style="fill:#ff0000;fill-opacity:1;fill-rule:nonzero;stroke:none"
         d="m 108.96875,689.97461 v 43 h 380 v -43 z m 52.24414,3.25391 c 0.6538,0.0306 1.30401,0.13486 1.95899,0.10351 0.10796,-0.003 0.21619,-0.009 0.32421,-0.0117 0.47941,-0.0129 0.39917,-0.0161 1.00782,0.0625 0.10404,0.0135 0.20689,0.0404 0.31054,0.0566 0.1263,0.0193 0.087,0.007 0.043,-0.01 0.47407,-0.0443 0.95024,-0.0274 1.42578,-0.0234 2.10182,0.17781 2.36067,-0.0867 2.76563,3.86914 0.0446,0.43594 -0.76329,0.43235 -1.14453,0.64844 0.0334,-0.008 0.13446,-0.0334 0.10156,-0.0234 -0.5289,0.15537 -1.06179,0.29914 -1.58008,0.48633 v 0.002 c 0.42293,-0.0442 0.35852,0.0393 0.0508,0.1836 0.12902,0.61037 -0.0618,1.33441 -0.65039,2.00976 -0.0969,0.35067 -0.1862,0.70431 -0.31445,1.04297 -0.23069,0.61431 -0.46232,1.23312 -0.74024,1.82812 -0.0621,0.13293 -0.38343,0.72305 -0.46093,0.86915 -0.0814,0.15346 -0.16159,0.30709 -0.24219,0.46093 -0.34657,0.70904 -0.35767,0.71761 -0.70703,1.50586 -0.37459,0.84521 -0.71328,1.70662 -1.12891,2.53321 -0.26302,0.54517 -0.48902,1.09857 -0.72851,1.65429 -0.28562,0.66275 -0.60369,1.31263 -0.85938,1.98828 -0.36028,0.93531 -0.71113,1.86952 -1.12891,2.78125 -0.1438,0.31391 -0.29598,0.62524 -0.44335,0.9375 -0.11962,0.23367 -0.24771,0.4627 -0.35743,0.70118 -0.1238,0.26908 -0.22807,0.54682 -0.34179,0.82031 -0.7676,2.0435 0.21557,-0.61876 -0.59571,1.73633 -0.23538,0.6833 -0.43404,1.2781 -0.91211,1.82226 -0.08,0.924 -0.0684,1.85274 -0.13867,2.77735 -0.0243,0.68546 -0.028,1.01921 -0.0801,1.67187 -0.008,0.0965 -0.0292,0.19226 -0.0332,0.28906 -0.003,0.0823 0.006,0.1641 0.0137,0.2461 0.0136,0.13648 0.0707,0.2725 0.0508,0.4082 -0.0731,0.4981 -0.21885,0.98317 -0.32812,1.47461 -1.4051,1.09865 -0.9413,0.96736 -1.76758,1.09961 -0.009,0.003 -0.0168,0.007 -0.0254,0.01 -0.072,0.0251 -0.30154,0.0448 -0.22656,0.0312 0.12666,-0.023 0.16188,-0.0266 0.25195,-0.041 0.21622,-0.0775 0.42387,-0.17843 0.63477,-0.26953 0.009,-0.004 0.0324,-0.0206 0.0234,-0.0176 -0.47222,0.13898 -0.94281,0.28544 -1.41406,0.42773 0.003,-8e-5 0.007,9e-5 0.01,0 0.006,-10e-5 0.0257,8.8e-4 0.0195,0.002 -0.0137,0.002 -0.0272,0.002 -0.041,0.002 0.004,-10e-4 0.008,-0.003 0.0117,-0.004 -0.034,9.2e-4 -0.0676,0.002 -0.10156,0.004 -0.35798,0.0198 -0.71515,0.0521 -1.07422,0.0312 -0.54991,-0.0283 -1.04151,-0.0437 -1.5957,-0.13086 -0.49949,-0.0786 -0.98822,-0.2263 -1.47071,-0.37305 -0.55095,-0.16758 -0.66328,-0.0385 -0.49804,-0.20117 -0.041,-0.0157 -0.0445,-0.0127 -0.0606,-0.0176 -0.32823,0.0575 -0.661,0.0284 -1.06836,-0.0566 -2.25194,-1.24871 -1.53419,-0.374 0.46094,-4.27148 -0.45385,0.14661 -0.92067,0.28957 -1.28711,0.58789 -0.28867,0.23501 -0.30728,0.68569 -0.53711,0.97852 -0.22897,0.2917 0.16286,-0.48585 0.22266,-0.60547 0.15354,-0.22406 0.3031,-0.45081 0.46093,-0.67188 0.0393,-0.055 0.0957,-0.0959 0.14258,-0.14453 0.0358,-0.0371 0.0737,-0.0722 0.10938,-0.10938 0.0216,0.0186 0.1011,0.003 0.27734,-0.0684 0.0824,-0.14201 0.144,-0.23438 0.20898,-0.33594 -0.0472,0.0314 -0.0925,0.0658 -0.14062,0.0957 -0.0914,0.0567 0.0537,-0.0613 0.18945,-0.17578 0.003,-0.005 0.007,-0.0112 0.01,-0.0156 -0.0297,0.0218 -0.0548,0.0367 -0.084,0.0586 0.0271,-0.0229 0.0544,-0.0461 0.082,-0.0684 0.005,-0.004 0.009,-0.006 0.0156,-0.0117 0.0468,-0.0681 0.11588,-0.14398 0.17383,-0.21484 -0.0158,-0.10196 -0.0351,-0.2029 -0.0527,-0.30469 -0.18921,-1.09606 -0.0449,-1.95985 0.28711,-2.56836 -0.0869,-0.20607 -0.15867,-0.45057 -0.21679,-0.7793 -0.2125,-1.20194 0.0811,-2.2145 0.51172,-3.33203 0.80469,-2.08822 2.0716,-4.4079 3.0664,-6.35547 0.637,-1.20454 1.56816,-3.00528 2.43164,-4.57226 -0.49382,-0.47763 -0.96312,-1.00179 -1.48828,-1.41992 0.29446,-0.47403 0.51392,-1.00489 0.88477,-1.42188 0.38874,-0.43711 2.25245,-1.48946 2.64843,-1.7207 0.63859,-0.71283 0.93856,-1.05156 1.25586,-1.39844 0.0571,-0.0947 0.0715,-0.1797 0.13868,-0.28125 0.46993,-0.71047 1.04046,-1.33373 1.66406,-1.90039 -3.1582,-0.51116 -2.77137,-4.12465 1.16406,-4.36914 0.21879,-0.0136 0.43832,-0.0122 0.65625,-0.002 z m -13.14844,30.67773 c -0.0154,0.0229 -0.0334,0.056 -0.0488,0.0801 0.0866,-0.0576 0.16567,-0.12612 0.25,-0.1875 0.002,-0.0132 -9.2e-4,-0.0243 0,-0.0371 -0.0802,0.0557 -0.0548,0.0302 -0.14257,0.0937 -0.0197,0.0172 -0.0368,0.0324 -0.0586,0.0508 z m 293.48047,-29.22852 c 0.45931,0.0287 -0.0534,-0.0154 -0.43945,0.0879 -0.11854,0.0317 -0.41102,0.0871 -0.32422,0.17383 0.43231,0.4319 0.78364,0.7385 1.08203,0.97071 0.6242,0.0335 1.15644,0.0593 2.60156,0.0918 0.13606,0.003 0.27211,8.3e-4 0.40821,0 0.12767,3.7e-4 0.25514,-0.005 0.38281,-0.004 0.0846,10e-4 0.25312,-0.0807 0.25391,0.004 0.004,0.39963 -0.0192,0.79875 -0.0508,1.19727 0.60679,-0.253 1.04982,-0.28327 0.35938,0.88476 0.0538,0.0676 0.0955,0.12913 0.14258,0.19336 1.24424,-0.0515 2.43654,0.023 2.93945,0.44727 l 0.002,0.002 c 0.54185,6.6e-4 1.05459,0.10155 1.51758,0.3711 0.79224,0.46123 1.80702,1.74273 1.23242,2.45703 -0.37919,0.4714 -0.92926,0.69646 -1.54101,0.82422 -0.16379,0.12673 -0.34878,0.20257 -0.54688,0.24609 0.17857,0.31911 0.36011,0.63311 0.57422,0.9043 -0.49516,0.17283 -0.99888,0.32332 -1.5039,0.47265 -0.37753,0.395 -1.03981,0.41636 -1.64844,0.51758 0.0698,0.11414 0.12577,0.23233 0.17187,0.35352 0.43904,-0.10289 0.87705,-0.20752 1.31641,-0.3086 0.0241,-0.007 0.0483,-0.011 0.0723,-0.0156 0.35791,-0.0823 0.71433,-0.17023 1.07226,-0.25195 1.05466,-0.17245 1.80391,-0.37125 1.20898,1.4121 1.80767,1.29102 0.49242,1.49158 -0.38867,1.61524 -0.006,0.0184 -0.0104,0.0359 -0.0176,0.0547 0.24495,0.3417 0.22556,1.07827 -0.0547,2.52539 0.2823,5.8e-4 0.55916,0.0305 0.82812,0.12109 2.27891,0.76722 1.90787,1.64319 0.90235,2.36133 0.73687,0.24027 1.82757,0.74359 1.52734,1.36133 -0.1977,0.40678 -0.52276,0.69747 -0.9043,0.93945 0.14356,0.12701 0.229,0.29111 0.21094,0.51172 0.44443,-0.003 0.88978,-0.01 1.33398,0.002 1.45198,0.0392 2.18424,0.3786 0.4043,3.08203 0.006,0.0299 0.0113,0.0622 0.0176,0.0918 0.016,0.075 -0.0345,0.0908 -0.12109,0.0723 -0.0221,0.0328 -0.0339,0.0564 -0.0566,0.0898 -0.23565,0.34607 -0.687,0.36877 -1.1543,0.36523 0.69996,0.92194 1.03611,1.56169 1.00195,2.07422 0.19383,-0.0305 0.4887,-0.1757 0.50196,-0.006 0.1202,1.54637 0.23008,2.31271 0.13867,2.71875 0.0674,0.1555 0.12385,0.29768 0.16797,0.42774 0.27132,0.004 0.87144,0.0176 0.88086,0.125 0.0636,0.72999 -0.009,1.46846 -0.13868,2.19531 0.93756,0.31955 1.63023,0.6643 0.40039,1.18164 -0.17565,0.0739 -0.34657,0.1604 -0.52734,0.2207 -0.0961,0.0321 -0.19824,0.0427 -0.29883,0.0547 -0.3198,0.0385 -0.63632,0.0272 -0.95703,0.0332 -0.59341,0.0487 -1.18701,0.11515 -1.7832,0.11915 -0.49742,0.0317 -0.99095,0.0918 -1.48828,0.125 -0.073,0.005 -0.14761,0.002 -0.22071,0.006 -0.0873,0.005 -0.17452,0.0145 -0.26172,0.0215 -0.85225,0.0871 -1.71139,0.13593 -2.5664,0.0488 -0.84805,-0.0831 -1.69807,-0.18648 -2.54883,-0.23828 -0.6957,-0.0424 -0.96281,-0.0362 -1.67187,-0.0117 -0.27875,0.01 -0.55735,0.0277 -0.83594,0.041 -0.24875,0.0147 -0.49693,0.041 -0.7461,0.043 -0.18996,0.002 -0.50031,0.14339 -0.57031,-0.0332 -0.24572,-0.61979 -0.42925,-1.27667 -0.52148,-1.94141 -0.084,-0.0505 -0.16632,-0.10602 -0.25196,-0.15234 0.0754,-0.18554 0.13644,-0.3789 0.19532,-0.57422 -0.001,-0.073 -0.0112,-0.1458 -0.01,-0.21875 7.3e-4,-0.0385 0.0462,-0.0722 0.10742,-0.10352 0.10426,-0.33913 0.22416,-0.66976 0.41602,-0.95703 -0.77876,-0.14139 -1.49146,-0.42344 -1.80078,-1.01758 -0.36776,-0.70636 -0.3166,-1.2825 -0.0352,-1.76171 -0.10083,-0.0507 -0.20126,-0.10307 -0.30273,-0.15235 -0.42687,-0.2372 -0.78142,-0.40766 -1.06836,-0.58008 -0.27201,-0.019 -0.54291,-0.0568 -0.81446,-0.084 7.6e-4,-0.80131 -0.36213,-1.72436 -0.26171,-2.49219 -0.14213,-0.0376 -0.27307,-0.10847 -0.38477,-0.23047 -0.0546,-0.0596 -0.0911,-0.12436 -0.12109,-0.1914 -0.62059,-0.0553 -1.06695,-0.14124 -1.22071,-0.27344 -0.70407,-0.60536 0.18698,-2.0583 0.91797,-2.63086 0.10636,-0.0833 0.22011,-0.14554 0.33984,-0.19727 0.0508,-0.065 0.0973,-0.13383 0.14454,-0.20312 -0.47302,0.15029 -0.93183,0.25389 -1.30469,-0.004 -2.17486,-1.50373 -1.94172,-2.37176 -1.06641,-3.06054 -0.64913,-0.31645 -1.1814,-0.89134 -1.59179,-1.5293 -0.28925,0.12471 -0.55276,0.1977 -0.67579,-0.0273 -0.44407,-0.81225 -0.70046,-1.89765 -0.46484,-2.80079 -0.0288,-0.0925 -0.0583,-0.18631 -0.082,-0.27734 -0.0373,-0.14291 0.0827,-0.18293 0.25586,-0.18945 0.007,-0.0132 0.0104,-0.0279 0.0176,-0.041 0.43916,-0.80583 1.71982,-0.6417 2.58789,-0.93945 0.42539,-0.14591 1.1141,-0.36451 1.71875,-0.56055 0.0138,-0.0398 0.0299,-0.0852 0.043,-0.12304 -1.80411,0.0845 -3.60041,0.1107 -5.41602,0.15039 -1.56835,0.008 -2.325,0.21791 -2.82812,-0.17579 -0.0813,0.0363 -0.19533,0.13605 -0.1836,0.0684 0.0143,-0.0827 0.0202,-0.1345 0.0332,-0.21289 -0.11108,-0.12914 -0.21142,-0.30165 -0.30664,-0.52539 h -0.002 c -0.089,-0.0513 -0.15002,-0.13313 -0.17773,-0.25195 -0.0462,-0.19804 -0.0812,-0.40857 -0.10938,-0.62305 -0.1058,-0.38177 -0.21487,-0.8204 -0.3418,-1.3789 -0.0263,-0.11576 0.0844,-0.15485 0.23047,-0.16993 -0.59444,0.0139 -0.82381,0.0365 -1.5625,0.13282 -0.2837,0.0104 -0.57104,0.0748 -0.85156,0.0312 -1.11051,-0.17265 -2.14852,-0.67544 -2.26172,-2.11914 -0.11438,-1.45869 1.44909,-2.21911 2.48047,-2.56641 0.99785,-0.33601 2.04587,-0.50264 3.06836,-0.75391 0.35488,-0.043 0.70811,-0.0926 1.0625,-0.14062 -0.11665,-0.98679 0.93911,-1.87054 2.73242,-1.3086 0.11326,-0.0417 0.23495,-0.0629 0.35156,-0.0957 0.1443,-0.013 0.28687,-0.0341 0.43165,-0.0391 0.11561,-0.004 0.23199,0.007 0.34765,0.01 0.13871,0.003 0.27729,0.007 0.41602,0.008 0.10036,10e-4 0.28198,-0.0986 0.30078,0 0.0133,0.0697 -0.0766,0.0873 -0.16602,0.10547 0.56881,-0.003 1.13823,-2.6e-4 1.70703,0 0.79024,-2.4e-4 1.57891,-0.004 2.36915,-0.002 0.0346,3e-5 0.0712,0.005 0.10546,0 0.007,-0.001 0.007,-0.0166 0.0137,-0.0176 0.48886,-0.0665 0.97744,-0.0486 1.46875,-0.0606 0.12652,-0.003 0.25255,-0.0145 0.3789,-0.0215 0.29638,-0.0306 0.59367,-0.0201 0.89063,-0.0371 0.15436,-0.009 0.30626,-0.0516 0.46093,-0.0586 0.10137,-0.005 0.20323,-0.002 0.30469,-0.004 z m -13.625,3.24415 c -0.25174,-0.017 -0.5193,0.23167 -0.78906,0.58203 0.19992,-0.007 0.31648,-0.0174 0.66406,-0.0234 0.20265,-0.004 0.44191,-10e-4 0.66406,-0.002 -0.16662,-0.37895 -0.34825,-0.54381 -0.53906,-0.55664 z m 7.41406,12.56445 c -0.0165,0.0129 -0.0343,0.0241 -0.0508,0.0371 -0.0332,0.0262 0.0593,0.15568 0.0586,0.11328 -0.001,-0.0597 -0.006,-0.0933 -0.008,-0.15039 z m -278.35937,10.17383 c 0.0109,-0.0264 -0.036,0.0481 -0.041,0.0762 -0.002,0.01 -0.002,0.0196 -0.004,0.0293 0.0148,-0.0352 0.0304,-0.0702 0.0449,-0.10546 z m 298.45117,3.50781 c -0.0254,-0.006 -0.0541,-0.007 -0.0566,0.008 -2.3e-4,10e-4 2.3e-4,0.003 0,0.004 0.0294,6.4e-4 0.0585,0.003 0.0879,0.004 0.015,0 -0.006,-0.01 -0.0312,-0.0156 z" />
    </clipPath>
  </defs>
  <g
     inkscape:label="Warstwa 1"
     inkscape:groupmode="layer"
     id="layer1"
     style="display:none">
    <path
       style="fill:none;stroke:#000000;stroke-width:1px;stroke-linecap:butt;stroke-linejoin:miter;stroke-opacity:1"
       d="m 0.58578639,895.69718 c 0,0 325.26911361,-386.0803 298.39906361,-770.74639"
       id="path185" />
    <path
       style="fill:none;stroke:#000000;stroke-width:1px;stroke-linecap:butt;stroke-linejoin:miter;stroke-opacity:1"
       d="m 599.59057,895.67224 c 0,0 -325.26911,-386.0803 -298.39906,-770.74639"
       id="path185-6" />
    <path
       style="fill:none;stroke:#000000;stroke-width:1px;stroke-linecap:butt;stroke-linejoin:miter;stroke-opacity:1"
       d="m 76.5,895 c 0,0 -1,-126 224,-128 225,-2 225,129 225,129"
       id="path317" />
    <path
       style="fill:none;stroke:#000000;stroke-width:1px;stroke-linecap:butt;stroke-linejoin:miter;stroke-opacity:1"
       d="m 449.71991,726.90577 c 0,0 -82.02439,-147.78532 -97.58073,-215.66757"
       id="path363" />
    <path
       style="fill:none;stroke:#000000;stroke-width:1px;stroke-linecap:butt;stroke-linejoin:miter;stroke-opacity:1"
       d="m 150.45607,727.32643 c 0,0 82.02439,-147.78532 97.58073,-215.66757"
       id="path363-2" />
    <path
       style="fill:none;stroke:#000000;stroke-width:1px;stroke-linecap:butt;stroke-linejoin:miter;stroke-opacity:1"
       d="m 150.5,727.5 c 0,0 134.5,-119 299,-0.5"
       id="path387" />
    <path
       style="fill:none;stroke:#000000;stroke-width:0.351138px;stroke-linecap:butt;stroke-linejoin:miter;stroke-opacity:1"
       d="m 247.53205,511.92393 c 0,0 47.22812,-41.78547 104.99039,-0.17557"
       id="path387-7" />
    <path
       style="fill:none;stroke:#000000;stroke-width:0.997478;stroke-linecap:butt;stroke-linejoin:miter;stroke-dasharray:none;stroke-opacity:1"
       d="m 247.87506,511.92128 c 0,0 46.99455,-41.78161 104.47115,-0.17555"
       id="path472" />
    <path
       style="fill:none;stroke:#000000;stroke-width:0.997478;stroke-linecap:butt;stroke-linejoin:miter;stroke-dasharray:none;stroke-opacity:1"
       d="m 246.85787,482.11729 c 0,0 46.99455,-41.78161 104.47115,-0.17554"
       id="path472-1" />
    <path
       style="fill:none;stroke:#000000;stroke-width:1px;stroke-linecap:butt;stroke-linejoin:miter;stroke-opacity:1"
       d="m 246.73438,482.3125 c 0,0 55.5,-159.5 52,-225.5"
       id="path1174" />
    <path
       style="fill:none;stroke:#000000;stroke-width:1px;stroke-linecap:butt;stroke-linejoin:miter;stroke-opacity:1"
       d="m 351.51545,482.18108 c 0,0 -55.5,-159.5 -52,-225.5"
       id="path1174-7" />
  </g>
  <g
     inkscape:groupmode="layer"
     id="layer2"
     inkscape:label="Warstwa 2">
    <path
       style="fill:none;stroke:#ffffff;stroke-width:4.99741;stroke-linecap:butt;stroke-linejoin:miter;stroke-dasharray:none;stroke-opacity:1"
       d="m 77.358623,894.32871 c 0,0 209.227207,-411.97027 209.227207,-768.03343"
       id="path1925"
       clip-path="url(#clipPath6060)" />
    <path
       style="fill:none;stroke:#ffffff;stroke-width:4.99908;stroke-linecap:butt;stroke-linejoin:miter;stroke-dasharray:none;stroke-opacity:1"
       d="m 522.68805,894.71897 c 0,0 -209.22645,-412.24685 -209.22645,-768.54907"
       id="path1925-1"
       clip-path="url(#clipPath6082)" />
    <path
       style="fill:none;stroke:#ffffff;stroke-width:5;stroke-linecap:butt;stroke-linejoin:miter;stroke-opacity:1;stroke-dasharray:none"
       d="m 150.2794,895.89686 c 0,0 -1.74448,-129.71236 149.35396,-128.90153 151.09845,0.81085 151.34293,130.0174 151.34293,130.0174"
       id="path5184" />
    <path
       style="fill:none;stroke:#ffffff;stroke-width:5.13402;stroke-linecap:butt;stroke-linejoin:miter;stroke-dasharray:none;stroke-opacity:1"
       d="M 75.125,895.75 H 152.75"
       id="path5186" />
    <path
       style="fill:none;stroke:#ffffff;stroke-width:4.08291;stroke-linecap:butt;stroke-linejoin:miter;stroke-dasharray:none;stroke-opacity:1"
       d="m 448.48448,896.80625 76.46317,-1.17662"
       id="path5188" />
    <path
       style="fill:none;stroke:#ffffff;stroke-width:4.99891;stroke-linecap:butt;stroke-linejoin:miter;stroke-dasharray:none;stroke-opacity:1"
       d="M 223.23772,690.01378 273.11809,550.26256"
       id="path5288" />
    <path
       style="fill:none;stroke:#ffffff;stroke-width:5.01788;stroke-linecap:butt;stroke-linejoin:miter;stroke-dasharray:none;stroke-opacity:1"
       d="M 373.99,690.50738 324.04024,549.88873"
       id="path5288-7" />
    <path
       style="fill:none;stroke:#ffffff;stroke-width:4.88211;stroke-linecap:butt;stroke-linejoin:miter;stroke-dasharray:none;stroke-opacity:1"
       d="m 270.75155,551.77609 55.63732,-0.31916"
       id="path5312" />
    <path
       style="fill:none;stroke:#ffffff;stroke-width:5.07969;stroke-linecap:butt;stroke-linejoin:miter;stroke-dasharray:none;stroke-opacity:1"
       d="m 220.87399,691.70821 155.47218,0.49956"
       id="path5314" />
    <path
       id="path5379"
       style="fill:none;fill-rule:evenodd;stroke:#ffffff;stroke-width:5;stroke-dasharray:none;stroke-opacity:1"
       d="m 299.99219,36.137753 a 20.004816,51.538463 0 0 0 -0.56067,0.09487 h 1.70128 a 20.004816,51.538463 0 0 0 -1.14061,-0.09487 z m -17.0128,24.56536 a 20.004816,51.538463 0 0 0 -2.99217,26.972567 20.004816,51.538463 0 0 0 20.00497,51.54029 20.004816,51.538463 0 0 0 20.00496,-51.54029 20.004816,51.538463 0 0 0 -2.96326,-26.972567 z" />
    <path
       style="fill:none;stroke:#000000;stroke-width:5;stroke-linecap:butt;stroke-linejoin:miter;stroke-dasharray:none;stroke-opacity:1"
       d="M 299.25101,58.600629 298.99899,6.7658955"
       id="path5381" />
    <rect
       style="opacity:0.998;fill:none;fill-rule:evenodd;stroke:#ffffff;stroke-width:5;stroke-linecap:round;stroke-linejoin:round;stroke-dasharray:none;paint-order:markers fill stroke;stroke-opacity:1"
       id="rect5458"
       width="375"
       height="38"
       x="111.46967"
       y="692.47485"
       ry="0.53033006"
       clip-path="url(#clipPath6092)" />
    <rect
       style="opacity:0.998;fill:none;fill-rule:evenodd;stroke:#ffffff;stroke-width:3.81862;stroke-linecap:round;stroke-linejoin:round;stroke-dasharray:none;paint-order:markers fill stroke;stroke-opacity:1"
       id="rect5458-9"
       width="212.13261"
       height="39.181381"
       x="192.02025"
       y="511.75537"
       ry="0.54681748"
       clip-path="url(#clipPath6002)" />
    <rect
       style="opacity:0.998;fill:none;fill-rule:evenodd;stroke:#ffffff;stroke-width:1;stroke-linecap:round;stroke-linejoin:round;stroke-dasharray:none;paint-order:markers fill stroke;stroke-opacity:1"
       id="rect5922"
       width="11.904399"
       height="1.7325242"
       x="370.17169"
       y="511.44846"
       ry="0.069908872" />
    <rect
       style="opacity:0.998;fill:none;fill-rule:evenodd;stroke:#ffffff;stroke-width:0.661085;stroke-linecap:round;stroke-linejoin:round;stroke-dasharray:none;paint-order:markers fill stroke;stroke-opacity:1"
       id="rect5958"
       width="14.569439"
       height="2.0845852"
       x="381.88916"
       y="549.34094"
       ry="0.076702625" />
    <rect
       style="opacity:0.998;fill:none;fill-rule:evenodd;stroke:#ffffff;stroke-width:1.09471;stroke-linecap:round;stroke-linejoin:round;stroke-dasharray:none;paint-order:markers fill stroke;stroke-opacity:1"
       id="rect5982"
       width="6.1810932"
       height="0.98804778"
       x="210.41016"
       y="549.57599"
       ry="0.16397011" />
    <rect
       style="opacity:0.998;fill:none;fill-rule:evenodd;stroke:#ffffff;stroke-width:1;stroke-linecap:round;stroke-linejoin:round;stroke-dasharray:none;paint-order:markers fill stroke;stroke-opacity:1"
       id="rect6006"
       width="8.9382715"
       height="1.1821941"
       x="219.78868"
       y="511.98953"
       ry="0.1796875" />
    <rect
       style="opacity:0.998;fill:#000000;fill-rule:evenodd;stroke:#ffffff;stroke-width:0.61755;stroke-linecap:round;stroke-linejoin:round;stroke-dasharray:none;paint-order:markers fill stroke;stroke-opacity:1"
       id="rect6096"
       width="17.043653"
       height="1.664081"
       x="155.65308"
       y="693.01007"
       ry="0.066989377" />
    <rect
       style="opacity:0.998;fill:#000000;fill-rule:evenodd;stroke:#ffffff;stroke-width:0.619955;stroke-linecap:round;stroke-linejoin:round;stroke-dasharray:none;paint-order:markers fill stroke;stroke-opacity:1"
       id="rect6096-8"
       width="17.041248"
       height="1.6773015"
       x="144.04189"
       y="728.27856"
       ry="0.06752158" />
    <rect
       style="opacity:0.998;fill:#000000;fill-rule:evenodd;stroke:#ffffff;stroke-width:0.61755;stroke-linecap:round;stroke-linejoin:round;stroke-dasharray:none;paint-order:markers fill stroke;stroke-opacity:1"
       id="rect6096-7"
       width="17.043653"
       height="1.664081"
       x="427.13599"
       y="693.00146"
       ry="0.066989377" />
    <rect
       style="opacity:0.998;fill:#000000;fill-rule:evenodd;stroke:#ffffff;stroke-width:0.61755;stroke-linecap:round;stroke-linejoin:round;stroke-dasharray:none;paint-order:markers fill stroke;stroke-opacity:1"
       id="rect6096-4"
       width="17.043653"
       height="1.664081"
       x="440.31659"
       y="728.28455"
       ry="0.066989377" />
    <path
       style="fill:none;stroke:#ffffff;stroke-width:5;stroke-linecap:butt;stroke-linejoin:miter;stroke-dasharray:none;stroke-opacity:1"
       d="M 276.55197,510.76853 299.00261,397.10112"
       id="path6146" />
    <path
       style="fill:none;stroke:#ffffff;stroke-width:5;stroke-linecap:butt;stroke-linejoin:miter;stroke-dasharray:none;stroke-opacity:1"
       d="M 322.10614,510.76899 299.6555,397.10158"
       id="path6146-5" />
  </g>
</svg>
